<svg xmlns="http://www.w3.org/2000/svg" xmlns:xlink="http://www.w3.org/1999/xlink" width="500" zoomAndPan="magnify" viewBox="0 0 375 374.999991" height="500" preserveAspectRatio="xMidYMid meet" version="1.2"><defs><clipPath id="ce9855a4c4"><path d="M 116.796875 72.664062 L 258.546875 72.664062 L 258.546875 281.164062 L 116.796875 281.164062 Z M 116.796875 72.664062 "/></clipPath><clipPath id="c21e50dabd"><path d="M 80.972656 69.554688 L 293.972656 69.554688 L 293.972656 282.554688 L 80.972656 282.554688 Z M 80.972656 69.554688 "/></clipPath></defs><g id="9ef435b87c"><rect x="0" width="375" y="0" height="374.999991" style="fill:#ffffff;fill-opacity:1;stroke:none;"/><rect x="0" width="375" y="0" height="374.999991" style="fill:#c48c22;fill-opacity:1;stroke:none;"/><g clip-rule="nonzero" clip-path="url(#ce9855a4c4)"><path style=" stroke:none;fill-rule:evenodd;fill:#000000;fill-opacity:1;" d="M 143.019531 218.472656 L 143.019531 122.570312 L 161.113281 112.144531 L 161.113281 281.164062 L 116.820312 281.164062 L 116.820312 233.597656 Z M 258.523438 281.164062 L 258.523438 202.789062 L 214.207031 177.265625 L 188.007812 162.164062 L 188.007812 281.164062 L 169.914062 281.164062 L 169.914062 72.664062 L 214.230469 98.214844 L 214.230469 281.164062 Z M 258.523438 281.164062 "/></g><g clip-rule="nonzero" clip-path="url(#c21e50dabd)"><path style=" stroke:none;fill-rule:nonzero;fill:#000000;fill-opacity:1;" d="M 187.472656 282.554688 C 128.765625 282.554688 80.972656 234.761719 80.972656 176.054688 C 80.972656 117.347656 128.765625 69.554688 187.472656 69.554688 C 246.179688 69.554688 293.972656 117.347656 293.972656 176.054688 C 293.972656 234.761719 246.179688 282.554688 187.472656 282.554688 Z M 187.472656 71.128906 C 129.605469 71.128906 82.546875 118.1875 82.546875 176.054688 C 82.546875 233.921875 129.605469 280.980469 187.472656 280.980469 C 245.339844 280.980469 292.398438 233.921875 292.398438 176.054688 C 292.398438 118.1875 245.339844 71.128906 187.472656 71.128906 Z M 187.472656 71.128906 "/></g><g style="fill:#c8c6c6;fill-opacity:1;"><g transform="translate(72.222655, 281.611345)"><path style="stroke:none" d="M 51.5 -16.765625 L 75.84375 -72.109375 L 96.828125 -72.109375 L 96.828125 -68.546875 C 94.828125 -68.484375 93.21875 -68.234375 92 -67.796875 C 90.78125 -67.359375 89.84375 -66.625 89.1875 -65.59375 C 88.53125 -64.5625 88.09375 -63.140625 87.875 -61.328125 C 87.65625 -59.523438 87.546875 -57.21875 87.546875 -54.40625 L 87.546875 -17.703125 C 87.546875 -14.578125 87.671875 -12.109375 87.921875 -10.296875 C 88.171875 -8.484375 88.65625 -7.078125 89.375 -6.078125 C 90.09375 -5.085938 91.125 -4.4375 92.46875 -4.125 C 93.8125 -3.8125 95.578125 -3.625 97.765625 -3.5625 L 97.765625 0 L 67.421875 0 L 67.421875 -3.5625 C 69.609375 -3.625 71.367188 -3.828125 72.703125 -4.171875 C 74.046875 -4.515625 75.09375 -5.148438 75.84375 -6.078125 C 76.59375 -7.015625 77.09375 -8.34375 77.34375 -10.0625 C 77.59375 -11.78125 77.71875 -14.109375 77.71875 -17.046875 L 77.71875 -60.484375 L 76.78125 -60.484375 L 49.4375 0.9375 L 47.375 0.9375 L 20.5 -60.484375 L 20.125 -60.484375 L 20.125 -17.703125 C 20.125 -14.578125 20.25 -12.109375 20.5 -10.296875 C 20.75 -8.484375 21.234375 -7.078125 21.953125 -6.078125 C 22.671875 -5.085938 23.703125 -4.4375 25.046875 -4.125 C 26.390625 -3.8125 28.15625 -3.625 30.34375 -3.5625 L 30.34375 0 L 4.21875 0 L 4.21875 -3.5625 C 6.394531 -3.625 8.15625 -3.828125 9.5 -4.171875 C 10.84375 -4.515625 11.890625 -5.148438 12.640625 -6.078125 C 13.390625 -7.015625 13.890625 -8.34375 14.140625 -10.0625 C 14.390625 -11.78125 14.515625 -14.109375 14.515625 -17.046875 L 14.515625 -55.0625 C 14.515625 -57.6875 14.40625 -59.851562 14.1875 -61.5625 C 13.96875 -63.28125 13.53125 -64.640625 12.875 -65.640625 C 12.21875 -66.640625 11.265625 -67.34375 10.015625 -67.75 C 8.765625 -68.15625 7.144531 -68.421875 5.15625 -68.546875 L 5.15625 -72.109375 L 27.53125 -72.109375 L 51.125 -16.765625 Z M 51.5 -16.765625 "/></g></g><g style="fill:#c8c6c6;fill-opacity:1;"><g transform="translate(174.295158, 281.611345)"><path style="stroke:none" d="M 64.703125 0 L 4.21875 0 L 4.21875 -3.5625 C 6.394531 -3.625 8.15625 -3.8125 9.5 -4.125 C 10.84375 -4.4375 11.890625 -4.960938 12.640625 -5.703125 C 13.390625 -6.453125 13.890625 -7.515625 14.140625 -8.890625 C 14.390625 -10.265625 14.515625 -12.046875 14.515625 -14.234375 L 14.515625 -57.875 C 14.515625 -60.050781 14.40625 -61.8125 14.1875 -63.15625 C 13.96875 -64.5 13.53125 -65.5625 12.875 -66.34375 C 12.21875 -67.125 11.265625 -67.65625 10.015625 -67.9375 C 8.765625 -68.21875 7.144531 -68.421875 5.15625 -68.546875 L 5.15625 -72.109375 L 33.609375 -72.109375 L 33.609375 -68.546875 C 31.617188 -68.484375 30.015625 -68.296875 28.796875 -67.984375 C 27.578125 -67.671875 26.640625 -67.109375 25.984375 -66.296875 C 25.328125 -65.484375 24.890625 -64.359375 24.671875 -62.921875 C 24.453125 -61.484375 24.34375 -59.582031 24.34375 -57.21875 L 24.34375 -16.859375 C 24.34375 -14.234375 24.609375 -12.09375 25.140625 -10.4375 C 25.671875 -8.78125 26.578125 -7.5 27.859375 -6.59375 C 29.140625 -5.695312 30.835938 -5.078125 32.953125 -4.734375 C 35.078125 -4.390625 37.765625 -4.21875 41.015625 -4.21875 C 44.578125 -4.21875 47.570312 -4.421875 50 -4.828125 C 52.4375 -5.234375 54.484375 -5.945312 56.140625 -6.96875 C 57.796875 -8 59.101562 -9.4375 60.0625 -11.28125 C 61.03125 -13.125 61.859375 -15.515625 62.546875 -18.453125 L 66.109375 -18.453125 Z M 64.703125 0 "/></g></g><g style="fill:#c8c6c6;fill-opacity:1;"><g transform="translate(242.374706, 281.611345)"><path style="stroke:none" d="M 5.4375 -22 L 8.890625 -22 C 9.328125 -19.195312 10.15625 -16.671875 11.375 -14.421875 C 12.59375 -12.171875 14.125 -10.265625 15.96875 -8.703125 C 17.8125 -7.148438 19.929688 -5.953125 22.328125 -5.109375 C 24.734375 -4.265625 27.34375 -3.84375 30.15625 -3.84375 C 34.769531 -3.84375 38.421875 -4.929688 41.109375 -7.109375 C 43.796875 -9.296875 45.140625 -12.265625 45.140625 -16.015625 C 45.140625 -17.578125 44.875 -19.007812 44.34375 -20.3125 C 43.8125 -21.625 42.921875 -22.890625 41.671875 -24.109375 C 40.421875 -25.328125 38.75 -26.53125 36.65625 -27.71875 C 34.5625 -28.90625 31.925781 -30.1875 28.75 -31.5625 C 24.875 -33.238281 21.625 -34.859375 19 -36.421875 C 16.382812 -37.984375 14.296875 -39.609375 12.734375 -41.296875 C 11.171875 -42.984375 10.0625 -44.773438 9.40625 -46.671875 C 8.75 -48.578125 8.421875 -50.75 8.421875 -53.1875 C 8.421875 -56.0625 8.9375 -58.710938 9.96875 -61.140625 C 11 -63.578125 12.453125 -65.6875 14.328125 -67.46875 C 16.203125 -69.25 18.414062 -70.625 20.96875 -71.59375 C 23.53125 -72.5625 26.34375 -73.046875 29.40625 -73.046875 C 32.144531 -73.046875 34.703125 -72.609375 37.078125 -71.734375 C 39.453125 -70.859375 41.859375 -69.453125 44.296875 -67.515625 L 46.734375 -71.734375 L 48.875 -71.734375 L 49.90625 -53.09375 L 46.453125 -53.09375 C 44.953125 -58.207031 42.78125 -62.015625 39.9375 -64.515625 C 37.09375 -67.015625 33.675781 -68.265625 29.6875 -68.265625 C 25.875 -68.265625 22.84375 -67.328125 20.59375 -65.453125 C 18.351562 -63.578125 17.234375 -61.050781 17.234375 -57.875 C 17.234375 -56.375 17.484375 -55.015625 17.984375 -53.796875 C 18.484375 -52.578125 19.289062 -51.421875 20.40625 -50.328125 C 21.53125 -49.234375 23 -48.140625 24.8125 -47.046875 C 26.625 -45.960938 28.875 -44.828125 31.5625 -43.640625 C 36.175781 -41.578125 40.007812 -39.65625 43.0625 -37.875 C 46.125 -36.09375 48.5625 -34.3125 50.375 -32.53125 C 52.1875 -30.757812 53.46875 -28.890625 54.21875 -26.921875 C 54.96875 -24.953125 55.34375 -22.75 55.34375 -20.3125 C 55.34375 -17.195312 54.71875 -14.328125 53.46875 -11.703125 C 52.21875 -9.078125 50.46875 -6.828125 48.21875 -4.953125 C 45.976562 -3.085938 43.296875 -1.640625 40.171875 -0.609375 C 37.046875 0.421875 33.613281 0.9375 29.875 0.9375 C 26.3125 0.9375 23.109375 0.4375 20.265625 -0.5625 C 17.429688 -1.5625 14.546875 -3.25 11.609375 -5.625 L 8.984375 -1.03125 L 6.828125 -1.03125 Z M 5.4375 -22 "/></g></g><g style="fill:#c8c6c6;fill-opacity:1;"><g transform="translate(76.628905, 300.361343)"><path style="stroke:none" d="M 9.8125 -3.15625 L 13.71875 -13 L 18.640625 -13 L 18.640625 -12.328125 C 18.273438 -12.328125 17.972656 -12.289062 17.734375 -12.21875 C 17.503906 -12.144531 17.328125 -12.007812 17.203125 -11.8125 C 17.085938 -11.625 17.007812 -11.363281 16.96875 -11.03125 C 16.925781 -10.707031 16.90625 -10.289062 16.90625 -9.78125 L 16.90625 -3.21875 C 16.90625 -2.65625 16.925781 -2.210938 16.96875 -1.890625 C 17.019531 -1.566406 17.113281 -1.3125 17.25 -1.125 C 17.382812 -0.945312 17.578125 -0.828125 17.828125 -0.765625 C 18.078125 -0.710938 18.410156 -0.679688 18.828125 -0.671875 L 18.828125 0 L 12.484375 0 L 12.484375 -0.671875 C 12.898438 -0.679688 13.234375 -0.71875 13.484375 -0.78125 C 13.734375 -0.84375 13.929688 -0.957031 14.078125 -1.125 C 14.222656 -1.300781 14.316406 -1.539062 14.359375 -1.84375 C 14.398438 -2.15625 14.421875 -2.578125 14.421875 -3.109375 L 14.421875 -11.015625 L 14.34375 -11.015625 L 9.796875 0.171875 L 8.546875 0.171875 L 3.84375 -11.015625 L 3.78125 -11.015625 L 3.78125 -3.21875 C 3.78125 -2.65625 3.800781 -2.210938 3.84375 -1.890625 C 3.894531 -1.566406 3.988281 -1.3125 4.125 -1.125 C 4.257812 -0.945312 4.453125 -0.828125 4.703125 -0.765625 C 4.953125 -0.710938 5.285156 -0.679688 5.703125 -0.671875 L 5.703125 0 L 0.5 0 L 0.5 -0.671875 C 0.914062 -0.679688 1.253906 -0.71875 1.515625 -0.78125 C 1.773438 -0.84375 1.972656 -0.957031 2.109375 -1.125 C 2.253906 -1.300781 2.347656 -1.539062 2.390625 -1.84375 C 2.441406 -2.15625 2.46875 -2.578125 2.46875 -3.109375 L 2.46875 -9.890625 C 2.46875 -10.367188 2.441406 -10.765625 2.390625 -11.078125 C 2.347656 -11.390625 2.265625 -11.640625 2.140625 -11.828125 C 2.015625 -12.015625 1.835938 -12.144531 1.609375 -12.21875 C 1.378906 -12.289062 1.070312 -12.328125 0.6875 -12.328125 L 0.6875 -13 L 5.8125 -13 L 9.75 -3.15625 Z M 9.8125 -3.15625 "/></g></g><g style="fill:#c8c6c6;fill-opacity:1;"><g transform="translate(95.609273, 300.361343)"><path style="stroke:none" d="M 7.859375 -6.1875 C 7.859375 -6.632812 7.84375 -6.988281 7.8125 -7.25 C 7.789062 -7.519531 7.726562 -7.722656 7.625 -7.859375 C 7.53125 -8.003906 7.382812 -8.097656 7.1875 -8.140625 C 6.988281 -8.191406 6.722656 -8.238281 6.390625 -8.28125 L 6.390625 -8.953125 L 10.203125 -8.953125 L 10.203125 -3.828125 C 10.203125 -3.140625 10.207031 -2.601562 10.21875 -2.21875 C 10.238281 -1.832031 10.269531 -1.539062 10.3125 -1.34375 C 10.351562 -1.195312 10.394531 -1.082031 10.4375 -1 C 10.476562 -0.914062 10.550781 -0.847656 10.65625 -0.796875 C 10.757812 -0.742188 10.894531 -0.707031 11.0625 -0.6875 C 11.238281 -0.675781 11.46875 -0.671875 11.75 -0.671875 L 11.75 -0.015625 L 8.390625 0.1875 L 8.203125 -1.3125 L 8.140625 -1.3125 C 7.847656 -0.84375 7.4375 -0.476562 6.90625 -0.21875 C 6.375 0.0390625 5.785156 0.171875 5.140625 0.171875 C 3.929688 0.171875 3.007812 -0.253906 2.375 -1.109375 C 1.894531 -1.765625 1.65625 -2.695312 1.65625 -3.90625 L 1.65625 -6.1875 C 1.65625 -6.644531 1.644531 -7.003906 1.625 -7.265625 C 1.601562 -7.535156 1.539062 -7.738281 1.4375 -7.875 C 1.34375 -8.007812 1.195312 -8.097656 1 -8.140625 C 0.8125 -8.191406 0.550781 -8.238281 0.21875 -8.28125 L 0.21875 -8.953125 L 4 -8.953125 L 4 -4.171875 C 4 -3.035156 4.140625 -2.207031 4.421875 -1.6875 C 4.703125 -1.175781 5.15625 -0.921875 5.78125 -0.921875 C 6.4375 -0.921875 6.945312 -1.226562 7.3125 -1.84375 C 7.675781 -2.425781 7.859375 -3.285156 7.859375 -4.421875 Z M 7.859375 -6.1875 "/></g></g><g style="fill:#c8c6c6;fill-opacity:1;"><g transform="translate(107.581909, 300.361343)"><path style="stroke:none" d="M 4.34375 -2.75 C 4.34375 -2.289062 4.351562 -1.925781 4.375 -1.65625 C 4.40625 -1.394531 4.46875 -1.191406 4.5625 -1.046875 C 4.664062 -0.910156 4.8125 -0.816406 5 -0.765625 C 5.195312 -0.722656 5.46875 -0.691406 5.8125 -0.671875 L 5.8125 0 L 0.484375 0 L 0.484375 -0.671875 C 0.816406 -0.691406 1.082031 -0.722656 1.28125 -0.765625 C 1.476562 -0.816406 1.628906 -0.910156 1.734375 -1.046875 C 1.835938 -1.179688 1.90625 -1.375 1.9375 -1.625 C 1.976562 -1.875 2 -2.210938 2 -2.640625 L 2 -4.75 C 2 -5.414062 1.984375 -5.953125 1.953125 -6.359375 C 1.929688 -6.765625 1.90625 -7.046875 1.875 -7.203125 C 1.84375 -7.347656 1.796875 -7.46875 1.734375 -7.5625 C 1.679688 -7.65625 1.597656 -7.726562 1.484375 -7.78125 C 1.367188 -7.832031 1.226562 -7.863281 1.0625 -7.875 C 0.894531 -7.894531 0.679688 -7.90625 0.421875 -7.90625 L 0.421875 -8.484375 L 3.6875 -9.125 L 3.90625 -7.640625 L 3.96875 -7.640625 C 4.34375 -8.109375 4.78125 -8.472656 5.28125 -8.734375 C 5.789062 -8.992188 6.347656 -9.125 6.953125 -9.125 C 7.679688 -9.125 8.265625 -9.023438 8.703125 -8.828125 C 9.148438 -8.628906 9.546875 -8.300781 9.890625 -7.84375 C 10.085938 -7.582031 10.257812 -7.242188 10.40625 -6.828125 C 10.550781 -6.421875 10.625 -5.859375 10.625 -5.140625 L 10.625 -2.75 C 10.625 -2.289062 10.632812 -1.925781 10.65625 -1.65625 C 10.6875 -1.394531 10.75 -1.191406 10.84375 -1.046875 C 10.945312 -0.910156 11.09375 -0.816406 11.28125 -0.765625 C 11.46875 -0.722656 11.726562 -0.691406 12.0625 -0.671875 L 12.0625 0 L 6.765625 0 L 6.765625 -0.671875 C 7.109375 -0.679688 7.378906 -0.710938 7.578125 -0.765625 C 7.773438 -0.816406 7.921875 -0.910156 8.015625 -1.046875 C 8.117188 -1.179688 8.1875 -1.375 8.21875 -1.625 C 8.257812 -1.882812 8.28125 -2.222656 8.28125 -2.640625 L 8.28125 -4.9375 C 8.28125 -5.507812 8.242188 -5.988281 8.171875 -6.375 C 8.109375 -6.769531 8 -7.085938 7.84375 -7.328125 C 7.695312 -7.578125 7.5 -7.753906 7.25 -7.859375 C 7 -7.960938 6.6875 -8.015625 6.3125 -8.015625 C 5.957031 -8.015625 5.648438 -7.914062 5.390625 -7.71875 C 5.128906 -7.519531 4.90625 -7.238281 4.71875 -6.875 C 4.613281 -6.675781 4.523438 -6.414062 4.453125 -6.09375 C 4.378906 -5.769531 4.34375 -5.429688 4.34375 -5.078125 Z M 4.34375 -2.75 "/></g></g><g style="fill:#c8c6c6;fill-opacity:1;"><g transform="translate(119.858501, 300.361343)"><path style="stroke:none" d="M 4.34375 -2.765625 C 4.34375 -2.316406 4.359375 -1.957031 4.390625 -1.6875 C 4.421875 -1.414062 4.488281 -1.207031 4.59375 -1.0625 C 4.695312 -0.914062 4.84375 -0.816406 5.03125 -0.765625 C 5.226562 -0.710938 5.488281 -0.679688 5.8125 -0.671875 L 5.8125 0 L 0.484375 0 L 0.484375 -0.671875 C 0.804688 -0.679688 1.0625 -0.71875 1.25 -0.78125 C 1.445312 -0.84375 1.597656 -0.941406 1.703125 -1.078125 C 1.816406 -1.222656 1.894531 -1.421875 1.9375 -1.671875 C 1.976562 -1.929688 2 -2.257812 2 -2.65625 L 2 -4.734375 C 2 -5.378906 1.984375 -5.910156 1.953125 -6.328125 C 1.929688 -6.753906 1.90625 -7.050781 1.875 -7.21875 C 1.820312 -7.5 1.695312 -7.679688 1.5 -7.765625 C 1.300781 -7.859375 0.941406 -7.90625 0.421875 -7.90625 L 0.421875 -8.484375 L 4.34375 -9.125 Z M 1.859375 -12.703125 C 1.859375 -13.078125 1.984375 -13.390625 2.234375 -13.640625 C 2.492188 -13.890625 2.800781 -14.015625 3.15625 -14.015625 C 3.53125 -14.015625 3.84375 -13.890625 4.09375 -13.640625 C 4.34375 -13.390625 4.46875 -13.078125 4.46875 -12.703125 C 4.46875 -12.335938 4.34375 -12.03125 4.09375 -11.78125 C 3.84375 -11.53125 3.53125 -11.40625 3.15625 -11.40625 C 2.800781 -11.40625 2.492188 -11.53125 2.234375 -11.78125 C 1.984375 -12.03125 1.859375 -12.335938 1.859375 -12.703125 Z M 1.859375 -12.703125 "/></g></g><g style="fill:#c8c6c6;fill-opacity:1;"><g transform="translate(125.954585, 300.361343)"><path style="stroke:none" d="M 8.921875 -1.40625 C 8.492188 -0.925781 7.960938 -0.554688 7.328125 -0.296875 C 6.691406 -0.046875 6 0.078125 5.25 0.078125 C 4.5625 0.078125 3.9375 -0.03125 3.375 -0.25 C 2.8125 -0.46875 2.328125 -0.769531 1.921875 -1.15625 C 1.515625 -1.550781 1.203125 -2.023438 0.984375 -2.578125 C 0.765625 -3.140625 0.65625 -3.757812 0.65625 -4.4375 C 0.65625 -5.132812 0.773438 -5.769531 1.015625 -6.34375 C 1.253906 -6.925781 1.585938 -7.421875 2.015625 -7.828125 C 2.441406 -8.234375 2.953125 -8.550781 3.546875 -8.78125 C 4.140625 -9.007812 4.796875 -9.125 5.515625 -9.125 C 6.023438 -9.125 6.492188 -9.070312 6.921875 -8.96875 C 7.359375 -8.863281 7.734375 -8.722656 8.046875 -8.546875 C 8.359375 -8.367188 8.601562 -8.15625 8.78125 -7.90625 C 8.957031 -7.664062 9.046875 -7.40625 9.046875 -7.125 C 9.046875 -6.800781 8.953125 -6.539062 8.765625 -6.34375 C 8.585938 -6.15625 8.335938 -6.0625 8.015625 -6.0625 C 7.765625 -6.0625 7.539062 -6.128906 7.34375 -6.265625 C 7.144531 -6.398438 6.945312 -6.617188 6.75 -6.921875 C 6.582031 -7.191406 6.4375 -7.40625 6.3125 -7.5625 C 6.195312 -7.71875 6.085938 -7.835938 5.984375 -7.921875 C 5.890625 -8.015625 5.789062 -8.070312 5.6875 -8.09375 C 5.59375 -8.125 5.472656 -8.140625 5.328125 -8.140625 C 4.671875 -8.140625 4.160156 -7.832031 3.796875 -7.21875 C 3.441406 -6.613281 3.265625 -5.765625 3.265625 -4.671875 C 3.265625 -3.503906 3.476562 -2.601562 3.90625 -1.96875 C 4.34375 -1.34375 4.96875 -1.03125 5.78125 -1.03125 C 6.238281 -1.03125 6.695312 -1.113281 7.15625 -1.28125 C 7.625 -1.457031 8.066406 -1.710938 8.484375 -2.046875 Z M 8.921875 -1.40625 "/></g></g><g style="fill:#c8c6c6;fill-opacity:1;"><g transform="translate(135.478655, 300.361343)"><path style="stroke:none" d="M 4.125 -2.765625 C 4.125 -2.304688 4.132812 -1.941406 4.15625 -1.671875 C 4.1875 -1.410156 4.25 -1.207031 4.34375 -1.0625 C 4.445312 -0.914062 4.59375 -0.816406 4.78125 -0.765625 C 4.976562 -0.722656 5.25 -0.691406 5.59375 -0.671875 L 5.59375 0 L 0.265625 0 L 0.265625 -0.671875 C 0.609375 -0.691406 0.878906 -0.722656 1.078125 -0.765625 C 1.285156 -0.816406 1.4375 -0.910156 1.53125 -1.046875 C 1.632812 -1.179688 1.703125 -1.375 1.734375 -1.625 C 1.765625 -1.882812 1.78125 -2.226562 1.78125 -2.65625 L 1.78125 -9.59375 C 1.78125 -10.269531 1.769531 -10.800781 1.75 -11.1875 C 1.726562 -11.570312 1.695312 -11.867188 1.65625 -12.078125 C 1.625 -12.222656 1.582031 -12.335938 1.53125 -12.421875 C 1.488281 -12.503906 1.421875 -12.570312 1.328125 -12.625 C 1.234375 -12.675781 1.101562 -12.707031 0.9375 -12.71875 C 0.769531 -12.738281 0.566406 -12.75 0.328125 -12.75 L 0.328125 -13.375 L 4.09375 -14.015625 L 4.09375 -7.78125 L 4.15625 -7.78125 C 4.5 -8.25 4.890625 -8.585938 5.328125 -8.796875 C 5.765625 -9.015625 6.285156 -9.125 6.890625 -9.125 C 7.992188 -9.125 8.847656 -8.785156 9.453125 -8.109375 C 9.742188 -7.765625 9.972656 -7.351562 10.140625 -6.875 C 10.316406 -6.40625 10.40625 -5.910156 10.40625 -5.390625 L 10.40625 -2.765625 C 10.40625 -2.296875 10.414062 -1.925781 10.4375 -1.65625 C 10.457031 -1.394531 10.515625 -1.191406 10.609375 -1.046875 C 10.710938 -0.910156 10.859375 -0.816406 11.046875 -0.765625 C 11.234375 -0.722656 11.5 -0.691406 11.84375 -0.671875 L 11.84375 0 L 6.546875 0 L 6.546875 -0.671875 C 6.890625 -0.679688 7.160156 -0.710938 7.359375 -0.765625 C 7.554688 -0.816406 7.707031 -0.910156 7.8125 -1.046875 C 7.914062 -1.179688 7.984375 -1.375 8.015625 -1.625 C 8.046875 -1.882812 8.0625 -2.226562 8.0625 -2.65625 L 8.0625 -4.734375 C 8.0625 -5.921875 7.929688 -6.757812 7.671875 -7.25 C 7.410156 -7.75 6.960938 -8 6.328125 -8 C 5.660156 -8 5.128906 -7.753906 4.734375 -7.265625 C 4.535156 -7.003906 4.382812 -6.679688 4.28125 -6.296875 C 4.175781 -5.910156 4.125 -5.484375 4.125 -5.015625 Z M 4.125 -2.765625 "/></g></g><g style="fill:#c8c6c6;fill-opacity:1;"><g transform="translate(147.535726, 300.361343)"><path style="stroke:none" d=""/></g></g><g style="fill:#c8c6c6;fill-opacity:1;"><g transform="translate(152.027577, 300.361343)"><path style="stroke:none" d="M 12.234375 0 L 0.59375 0 L 0.59375 -0.671875 C 0.96875 -0.679688 1.269531 -0.710938 1.5 -0.765625 C 1.738281 -0.828125 1.921875 -0.925781 2.046875 -1.0625 C 2.171875 -1.195312 2.253906 -1.390625 2.296875 -1.640625 C 2.335938 -1.890625 2.359375 -2.207031 2.359375 -2.59375 L 2.359375 -10.40625 C 2.359375 -10.800781 2.335938 -11.117188 2.296875 -11.359375 C 2.265625 -11.597656 2.191406 -11.785156 2.078125 -11.921875 C 1.960938 -12.066406 1.800781 -12.164062 1.59375 -12.21875 C 1.382812 -12.269531 1.113281 -12.304688 0.78125 -12.328125 L 0.78125 -13 L 6.609375 -13 L 6.609375 -12.328125 C 6.222656 -12.316406 5.914062 -12.28125 5.6875 -12.21875 C 5.457031 -12.164062 5.28125 -12.066406 5.15625 -11.921875 C 5.03125 -11.773438 4.945312 -11.570312 4.90625 -11.3125 C 4.863281 -11.050781 4.84375 -10.707031 4.84375 -10.28125 L 4.84375 -3.203125 C 4.84375 -2.734375 4.890625 -2.347656 4.984375 -2.046875 C 5.085938 -1.753906 5.253906 -1.523438 5.484375 -1.359375 C 5.722656 -1.191406 6.039062 -1.078125 6.4375 -1.015625 C 6.832031 -0.953125 7.320312 -0.921875 7.90625 -0.921875 C 8.5625 -0.921875 9.109375 -0.960938 9.546875 -1.046875 C 9.984375 -1.128906 10.347656 -1.28125 10.640625 -1.5 C 10.941406 -1.71875 11.179688 -2.007812 11.359375 -2.375 C 11.546875 -2.75 11.703125 -3.234375 11.828125 -3.828125 L 12.5 -3.828125 Z M 12.234375 0 "/></g></g><g style="fill:#c8c6c6;fill-opacity:1;"><g transform="translate(164.776993, 300.361343)"><path style="stroke:none" d="M 4.34375 -2.765625 C 4.34375 -2.316406 4.359375 -1.957031 4.390625 -1.6875 C 4.421875 -1.414062 4.488281 -1.207031 4.59375 -1.0625 C 4.695312 -0.914062 4.84375 -0.816406 5.03125 -0.765625 C 5.226562 -0.710938 5.488281 -0.679688 5.8125 -0.671875 L 5.8125 0 L 0.484375 0 L 0.484375 -0.671875 C 0.804688 -0.679688 1.0625 -0.71875 1.25 -0.78125 C 1.445312 -0.84375 1.597656 -0.941406 1.703125 -1.078125 C 1.816406 -1.222656 1.894531 -1.421875 1.9375 -1.671875 C 1.976562 -1.929688 2 -2.257812 2 -2.65625 L 2 -4.734375 C 2 -5.378906 1.984375 -5.910156 1.953125 -6.328125 C 1.929688 -6.753906 1.90625 -7.050781 1.875 -7.21875 C 1.820312 -7.5 1.695312 -7.679688 1.5 -7.765625 C 1.300781 -7.859375 0.941406 -7.90625 0.421875 -7.90625 L 0.421875 -8.484375 L 4.34375 -9.125 Z M 1.859375 -12.703125 C 1.859375 -13.078125 1.984375 -13.390625 2.234375 -13.640625 C 2.492188 -13.890625 2.800781 -14.015625 3.15625 -14.015625 C 3.53125 -14.015625 3.84375 -13.890625 4.09375 -13.640625 C 4.34375 -13.390625 4.46875 -13.078125 4.46875 -12.703125 C 4.46875 -12.335938 4.34375 -12.03125 4.09375 -11.78125 C 3.84375 -11.53125 3.53125 -11.40625 3.15625 -11.40625 C 2.800781 -11.40625 2.492188 -11.53125 2.234375 -11.78125 C 1.984375 -12.03125 1.859375 -12.335938 1.859375 -12.703125 Z M 1.859375 -12.703125 "/></g></g><g style="fill:#c8c6c6;fill-opacity:1;"><g transform="translate(170.704105, 300.361343)"><path style="stroke:none" d="M 1.703125 -6.765625 C 1.578125 -7.097656 1.457031 -7.363281 1.34375 -7.5625 C 1.238281 -7.757812 1.125 -7.910156 1 -8.015625 C 0.882812 -8.117188 0.753906 -8.1875 0.609375 -8.21875 C 0.472656 -8.257812 0.3125 -8.28125 0.125 -8.28125 L 0.125 -8.953125 L 5.171875 -8.953125 L 5.171875 -8.28125 C 4.890625 -8.28125 4.664062 -8.265625 4.5 -8.234375 C 4.332031 -8.210938 4.207031 -8.179688 4.125 -8.140625 C 4.039062 -8.097656 3.988281 -8.039062 3.96875 -7.96875 C 3.945312 -7.894531 3.9375 -7.8125 3.9375 -7.71875 C 3.9375 -7.570312 3.960938 -7.398438 4.015625 -7.203125 C 4.078125 -7.015625 4.144531 -6.828125 4.21875 -6.640625 L 5.828125 -2.21875 L 5.890625 -2.21875 L 7.703125 -6.625 C 7.785156 -6.8125 7.847656 -6.976562 7.890625 -7.125 C 7.929688 -7.28125 7.953125 -7.421875 7.953125 -7.546875 C 7.953125 -7.796875 7.867188 -7.976562 7.703125 -8.09375 C 7.535156 -8.207031 7.238281 -8.269531 6.8125 -8.28125 L 6.8125 -8.953125 L 10.546875 -8.953125 L 10.546875 -8.28125 C 10.234375 -8.28125 9.96875 -8.195312 9.75 -8.03125 C 9.53125 -7.875 9.300781 -7.53125 9.0625 -7 L 5.90625 0.171875 L 4.375 0.171875 Z M 1.703125 -6.765625 "/></g></g><g style="fill:#c8c6c6;fill-opacity:1;"><g transform="translate(181.241378, 300.361343)"><path style="stroke:none" d="M 4.34375 -2.765625 C 4.34375 -2.316406 4.359375 -1.957031 4.390625 -1.6875 C 4.421875 -1.414062 4.488281 -1.207031 4.59375 -1.0625 C 4.695312 -0.914062 4.84375 -0.816406 5.03125 -0.765625 C 5.226562 -0.710938 5.488281 -0.679688 5.8125 -0.671875 L 5.8125 0 L 0.484375 0 L 0.484375 -0.671875 C 0.804688 -0.679688 1.0625 -0.71875 1.25 -0.78125 C 1.445312 -0.84375 1.597656 -0.941406 1.703125 -1.078125 C 1.816406 -1.222656 1.894531 -1.421875 1.9375 -1.671875 C 1.976562 -1.929688 2 -2.257812 2 -2.65625 L 2 -4.734375 C 2 -5.378906 1.984375 -5.910156 1.953125 -6.328125 C 1.929688 -6.753906 1.90625 -7.050781 1.875 -7.21875 C 1.820312 -7.5 1.695312 -7.679688 1.5 -7.765625 C 1.300781 -7.859375 0.941406 -7.90625 0.421875 -7.90625 L 0.421875 -8.484375 L 4.34375 -9.125 Z M 1.859375 -12.703125 C 1.859375 -13.078125 1.984375 -13.390625 2.234375 -13.640625 C 2.492188 -13.890625 2.800781 -14.015625 3.15625 -14.015625 C 3.53125 -14.015625 3.84375 -13.890625 4.09375 -13.640625 C 4.34375 -13.390625 4.46875 -13.078125 4.46875 -12.703125 C 4.46875 -12.335938 4.34375 -12.03125 4.09375 -11.78125 C 3.84375 -11.53125 3.53125 -11.40625 3.15625 -11.40625 C 2.800781 -11.40625 2.492188 -11.53125 2.234375 -11.78125 C 1.984375 -12.03125 1.859375 -12.335938 1.859375 -12.703125 Z M 1.859375 -12.703125 "/></g></g><g style="fill:#c8c6c6;fill-opacity:1;"><g transform="translate(187.337462, 300.361343)"><path style="stroke:none" d="M 4.34375 -2.75 C 4.34375 -2.289062 4.351562 -1.925781 4.375 -1.65625 C 4.40625 -1.394531 4.46875 -1.191406 4.5625 -1.046875 C 4.664062 -0.910156 4.8125 -0.816406 5 -0.765625 C 5.195312 -0.722656 5.46875 -0.691406 5.8125 -0.671875 L 5.8125 0 L 0.484375 0 L 0.484375 -0.671875 C 0.816406 -0.691406 1.082031 -0.722656 1.28125 -0.765625 C 1.476562 -0.816406 1.628906 -0.910156 1.734375 -1.046875 C 1.835938 -1.179688 1.90625 -1.375 1.9375 -1.625 C 1.976562 -1.875 2 -2.210938 2 -2.640625 L 2 -4.75 C 2 -5.414062 1.984375 -5.953125 1.953125 -6.359375 C 1.929688 -6.765625 1.90625 -7.046875 1.875 -7.203125 C 1.84375 -7.347656 1.796875 -7.46875 1.734375 -7.5625 C 1.679688 -7.65625 1.597656 -7.726562 1.484375 -7.78125 C 1.367188 -7.832031 1.226562 -7.863281 1.0625 -7.875 C 0.894531 -7.894531 0.679688 -7.90625 0.421875 -7.90625 L 0.421875 -8.484375 L 3.6875 -9.125 L 3.90625 -7.640625 L 3.96875 -7.640625 C 4.34375 -8.109375 4.78125 -8.472656 5.28125 -8.734375 C 5.789062 -8.992188 6.347656 -9.125 6.953125 -9.125 C 7.679688 -9.125 8.265625 -9.023438 8.703125 -8.828125 C 9.148438 -8.628906 9.546875 -8.300781 9.890625 -7.84375 C 10.085938 -7.582031 10.257812 -7.242188 10.40625 -6.828125 C 10.550781 -6.421875 10.625 -5.859375 10.625 -5.140625 L 10.625 -2.75 C 10.625 -2.289062 10.632812 -1.925781 10.65625 -1.65625 C 10.6875 -1.394531 10.75 -1.191406 10.84375 -1.046875 C 10.945312 -0.910156 11.09375 -0.816406 11.28125 -0.765625 C 11.46875 -0.722656 11.726562 -0.691406 12.0625 -0.671875 L 12.0625 0 L 6.765625 0 L 6.765625 -0.671875 C 7.109375 -0.679688 7.378906 -0.710938 7.578125 -0.765625 C 7.773438 -0.816406 7.921875 -0.910156 8.015625 -1.046875 C 8.117188 -1.179688 8.1875 -1.375 8.21875 -1.625 C 8.257812 -1.882812 8.28125 -2.222656 8.28125 -2.640625 L 8.28125 -4.9375 C 8.28125 -5.507812 8.242188 -5.988281 8.171875 -6.375 C 8.109375 -6.769531 8 -7.085938 7.84375 -7.328125 C 7.695312 -7.578125 7.5 -7.753906 7.25 -7.859375 C 7 -7.960938 6.6875 -8.015625 6.3125 -8.015625 C 5.957031 -8.015625 5.648438 -7.914062 5.390625 -7.71875 C 5.128906 -7.519531 4.90625 -7.238281 4.71875 -6.875 C 4.613281 -6.675781 4.523438 -6.414062 4.453125 -6.09375 C 4.378906 -5.769531 4.34375 -5.429688 4.34375 -5.078125 Z M 4.34375 -2.75 "/></g></g><g style="fill:#c8c6c6;fill-opacity:1;"><g transform="translate(199.614053, 300.361343)"><path style="stroke:none" d="M 3.84375 -1.828125 C 4.15625 -1.804688 4.425781 -1.78125 4.65625 -1.75 C 4.882812 -1.726562 5.101562 -1.703125 5.3125 -1.671875 C 5.519531 -1.648438 5.726562 -1.625 5.9375 -1.59375 C 6.144531 -1.5625 6.367188 -1.53125 6.609375 -1.5 C 7.484375 -1.375 8.171875 -1.046875 8.671875 -0.515625 C 9.171875 0.015625 9.421875 0.675781 9.421875 1.46875 C 9.421875 2.425781 9.023438 3.148438 8.234375 3.640625 C 7.453125 4.140625 6.296875 4.390625 4.765625 4.390625 C 3.359375 4.390625 2.273438 4.179688 1.515625 3.765625 C 0.753906 3.359375 0.375 2.78125 0.375 2.03125 C 0.375 1.445312 0.523438 1.003906 0.828125 0.703125 C 1.128906 0.398438 1.507812 0.25 1.96875 0.25 C 2.269531 0.25 2.554688 0.304688 2.828125 0.421875 C 3.109375 0.546875 3.34375 0.722656 3.53125 0.953125 C 3.238281 1.003906 3 1.132812 2.8125 1.34375 C 2.625 1.550781 2.53125 1.796875 2.53125 2.078125 C 2.53125 2.523438 2.726562 2.867188 3.125 3.109375 C 3.53125 3.359375 4.117188 3.484375 4.890625 3.484375 C 6.585938 3.484375 7.4375 2.945312 7.4375 1.875 C 7.4375 1.488281 7.304688 1.15625 7.046875 0.875 C 6.796875 0.601562 6.4375 0.441406 5.96875 0.390625 L 3 -0.015625 C 1.75 -0.179688 1.125 -0.738281 1.125 -1.6875 C 1.125 -2.144531 1.273438 -2.519531 1.578125 -2.8125 C 1.878906 -3.113281 2.304688 -3.316406 2.859375 -3.421875 L 2.859375 -3.5 C 2.597656 -3.59375 2.363281 -3.726562 2.15625 -3.90625 C 1.945312 -4.09375 1.765625 -4.300781 1.609375 -4.53125 C 1.453125 -4.769531 1.328125 -5.023438 1.234375 -5.296875 C 1.148438 -5.578125 1.109375 -5.867188 1.109375 -6.171875 C 1.109375 -6.585938 1.195312 -6.976562 1.375 -7.34375 C 1.550781 -7.707031 1.789062 -8.019531 2.09375 -8.28125 C 2.40625 -8.539062 2.769531 -8.742188 3.1875 -8.890625 C 3.613281 -9.046875 4.078125 -9.125 4.578125 -9.125 C 5.054688 -9.125 5.523438 -9.050781 5.984375 -8.90625 C 6.453125 -8.757812 6.847656 -8.554688 7.171875 -8.296875 C 7.429688 -8.453125 7.65625 -8.582031 7.84375 -8.6875 C 8.039062 -8.789062 8.21875 -8.875 8.375 -8.9375 C 8.539062 -9 8.691406 -9.046875 8.828125 -9.078125 C 8.960938 -9.109375 9.097656 -9.125 9.234375 -9.125 C 9.660156 -9.125 10.003906 -9.023438 10.265625 -8.828125 C 10.535156 -8.640625 10.671875 -8.390625 10.671875 -8.078125 C 10.671875 -7.835938 10.597656 -7.640625 10.453125 -7.484375 C 10.304688 -7.335938 10.113281 -7.265625 9.875 -7.265625 C 9.707031 -7.265625 9.570312 -7.300781 9.46875 -7.375 C 9.375 -7.445312 9.273438 -7.53125 9.171875 -7.625 C 9.078125 -7.71875 8.976562 -7.800781 8.875 -7.875 C 8.78125 -7.945312 8.648438 -7.984375 8.484375 -7.984375 C 8.242188 -7.984375 8.015625 -7.832031 7.796875 -7.53125 C 7.910156 -7.34375 7.988281 -7.140625 8.03125 -6.921875 C 8.082031 -6.703125 8.109375 -6.441406 8.109375 -6.140625 C 8.109375 -5.710938 8.039062 -5.316406 7.90625 -4.953125 C 7.769531 -4.597656 7.554688 -4.28125 7.265625 -4 C 6.984375 -3.726562 6.613281 -3.492188 6.15625 -3.296875 C 5.707031 -3.109375 5.164062 -2.984375 4.53125 -2.921875 C 3.988281 -2.867188 3.613281 -2.796875 3.40625 -2.703125 C 3.195312 -2.609375 3.09375 -2.472656 3.09375 -2.296875 C 3.09375 -2.023438 3.34375 -1.867188 3.84375 -1.828125 Z M 4.65625 -3.890625 C 5.019531 -3.890625 5.300781 -4.078125 5.5 -4.453125 C 5.707031 -4.835938 5.8125 -5.375 5.8125 -6.0625 C 5.8125 -6.757812 5.707031 -7.296875 5.5 -7.671875 C 5.300781 -8.054688 5.015625 -8.25 4.640625 -8.25 C 4.265625 -8.25 3.960938 -8.054688 3.734375 -7.671875 C 3.503906 -7.285156 3.390625 -6.757812 3.390625 -6.09375 C 3.390625 -5.414062 3.503906 -4.878906 3.734375 -4.484375 C 3.972656 -4.085938 4.28125 -3.890625 4.65625 -3.890625 Z M 4.65625 -3.890625 "/></g></g><g style="fill:#c8c6c6;fill-opacity:1;"><g transform="translate(209.729039, 300.361343)"><path style="stroke:none" d=""/></g></g><g style="fill:#c8c6c6;fill-opacity:1;"><g transform="translate(214.220891, 300.361343)"><path style="stroke:none" d="M 0.90625 -4.3125 L 1.578125 -4.3125 C 1.734375 -3.238281 2.160156 -2.394531 2.859375 -1.78125 C 3.554688 -1.164062 4.414062 -0.859375 5.4375 -0.859375 C 5.851562 -0.859375 6.234375 -0.910156 6.578125 -1.015625 C 6.929688 -1.117188 7.234375 -1.257812 7.484375 -1.4375 C 7.734375 -1.625 7.925781 -1.84375 8.0625 -2.09375 C 8.195312 -2.351562 8.265625 -2.640625 8.265625 -2.953125 C 8.265625 -3.222656 8.21875 -3.457031 8.125 -3.65625 C 8.039062 -3.851562 7.878906 -4.046875 7.640625 -4.234375 C 7.410156 -4.421875 7.085938 -4.609375 6.671875 -4.796875 C 6.265625 -4.984375 5.734375 -5.203125 5.078125 -5.453125 C 3.765625 -5.960938 2.789062 -6.550781 2.15625 -7.21875 C 1.53125 -7.882812 1.21875 -8.675781 1.21875 -9.59375 C 1.21875 -10.125 1.316406 -10.609375 1.515625 -11.046875 C 1.722656 -11.484375 2.007812 -11.859375 2.375 -12.171875 C 2.738281 -12.492188 3.175781 -12.738281 3.6875 -12.90625 C 4.195312 -13.082031 4.765625 -13.171875 5.390625 -13.171875 C 5.960938 -13.171875 6.5 -13.082031 7 -12.90625 C 7.507812 -12.726562 8.015625 -12.457031 8.515625 -12.09375 L 8.8125 -12.9375 L 9.21875 -12.9375 L 9.40625 -9.296875 L 8.75 -9.296875 C 8.476562 -10.210938 8.054688 -10.914062 7.484375 -11.40625 C 6.910156 -11.894531 6.242188 -12.140625 5.484375 -12.140625 C 4.785156 -12.140625 4.21875 -11.96875 3.78125 -11.625 C 3.351562 -11.28125 3.140625 -10.835938 3.140625 -10.296875 C 3.140625 -10.066406 3.175781 -9.859375 3.25 -9.671875 C 3.332031 -9.484375 3.476562 -9.304688 3.6875 -9.140625 C 3.90625 -8.972656 4.203125 -8.800781 4.578125 -8.625 C 4.953125 -8.445312 5.429688 -8.253906 6.015625 -8.046875 C 6.804688 -7.734375 7.476562 -7.421875 8.03125 -7.109375 C 8.59375 -6.804688 9.050781 -6.476562 9.40625 -6.125 C 9.757812 -5.769531 10.019531 -5.394531 10.1875 -5 C 10.351562 -4.601562 10.4375 -4.171875 10.4375 -3.703125 C 10.4375 -3.128906 10.3125 -2.601562 10.0625 -2.125 C 9.8125 -1.65625 9.460938 -1.25 9.015625 -0.90625 C 8.578125 -0.570312 8.050781 -0.304688 7.4375 -0.109375 C 6.820312 0.078125 6.144531 0.171875 5.40625 0.171875 C 4.726562 0.171875 4.117188 0.078125 3.578125 -0.109375 C 3.035156 -0.296875 2.476562 -0.597656 1.90625 -1.015625 L 1.578125 0 L 1.171875 0 Z M 0.90625 -4.3125 "/></g></g><g style="fill:#c8c6c6;fill-opacity:1;"><g transform="translate(225.416737, 300.361343)"><path style="stroke:none" d="M 5.546875 -9.125 C 6.210938 -9.125 6.847656 -9.003906 7.453125 -8.765625 C 8.054688 -8.535156 8.585938 -8.21875 9.046875 -7.8125 C 9.503906 -7.414062 9.863281 -6.9375 10.125 -6.375 C 10.382812 -5.820312 10.515625 -5.210938 10.515625 -4.546875 C 10.515625 -3.859375 10.382812 -3.226562 10.125 -2.65625 C 9.863281 -2.082031 9.503906 -1.585938 9.046875 -1.171875 C 8.585938 -0.753906 8.054688 -0.425781 7.453125 -0.1875 C 6.847656 0.0507812 6.210938 0.171875 5.546875 0.171875 C 4.878906 0.171875 4.242188 0.0546875 3.640625 -0.171875 C 3.046875 -0.410156 2.523438 -0.738281 2.078125 -1.15625 C 1.628906 -1.570312 1.273438 -2.066406 1.015625 -2.640625 C 0.753906 -3.222656 0.625 -3.859375 0.625 -4.546875 C 0.625 -5.210938 0.753906 -5.828125 1.015625 -6.390625 C 1.273438 -6.953125 1.628906 -7.429688 2.078125 -7.828125 C 2.523438 -8.234375 3.046875 -8.550781 3.640625 -8.78125 C 4.242188 -9.007812 4.878906 -9.125 5.546875 -9.125 Z M 5.546875 -8.140625 C 5.203125 -8.140625 4.890625 -8.050781 4.609375 -7.875 C 4.328125 -7.707031 4.085938 -7.460938 3.890625 -7.140625 C 3.691406 -6.828125 3.539062 -6.445312 3.4375 -6 C 3.332031 -5.5625 3.28125 -5.070312 3.28125 -4.53125 C 3.28125 -3.96875 3.332031 -3.457031 3.4375 -3 C 3.539062 -2.550781 3.691406 -2.171875 3.890625 -1.859375 C 4.085938 -1.546875 4.320312 -1.300781 4.59375 -1.125 C 4.875 -0.945312 5.191406 -0.859375 5.546875 -0.859375 C 5.890625 -0.859375 6.203125 -0.945312 6.484375 -1.125 C 6.773438 -1.300781 7.019531 -1.546875 7.21875 -1.859375 C 7.425781 -2.179688 7.585938 -2.566406 7.703125 -3.015625 C 7.816406 -3.472656 7.875 -3.976562 7.875 -4.53125 C 7.875 -5.070312 7.816406 -5.5625 7.703125 -6 C 7.585938 -6.4375 7.425781 -6.816406 7.21875 -7.140625 C 7.019531 -7.460938 6.773438 -7.707031 6.484375 -7.875 C 6.203125 -8.050781 5.890625 -8.140625 5.546875 -8.140625 Z M 5.546875 -8.140625 "/></g></g><g style="fill:#c8c6c6;fill-opacity:1;"><g transform="translate(236.561931, 300.361343)"><path style="stroke:none" d="M 4.171875 -2.765625 C 4.171875 -2.316406 4.1875 -1.957031 4.21875 -1.6875 C 4.25 -1.414062 4.316406 -1.207031 4.421875 -1.0625 C 4.523438 -0.914062 4.671875 -0.816406 4.859375 -0.765625 C 5.054688 -0.710938 5.316406 -0.679688 5.640625 -0.671875 L 5.640625 0 L 0.328125 0 L 0.328125 -0.671875 C 0.640625 -0.679688 0.894531 -0.71875 1.09375 -0.78125 C 1.289062 -0.84375 1.441406 -0.941406 1.546875 -1.078125 C 1.648438 -1.222656 1.722656 -1.421875 1.765625 -1.671875 C 1.804688 -1.929688 1.828125 -2.257812 1.828125 -2.65625 L 1.828125 -9.625 C 1.828125 -10.28125 1.8125 -10.816406 1.78125 -11.234375 C 1.757812 -11.660156 1.734375 -11.953125 1.703125 -12.109375 C 1.648438 -12.390625 1.523438 -12.570312 1.328125 -12.65625 C 1.128906 -12.75 0.769531 -12.796875 0.25 -12.796875 L 0.25 -13.375 L 4.171875 -14.015625 Z M 4.171875 -2.765625 "/></g></g><g style="fill:#c8c6c6;fill-opacity:1;"><g transform="translate(242.556689, 300.361343)"><path style="stroke:none" d="M 7.859375 -6.1875 C 7.859375 -6.632812 7.84375 -6.988281 7.8125 -7.25 C 7.789062 -7.519531 7.726562 -7.722656 7.625 -7.859375 C 7.53125 -8.003906 7.382812 -8.097656 7.1875 -8.140625 C 6.988281 -8.191406 6.722656 -8.238281 6.390625 -8.28125 L 6.390625 -8.953125 L 10.203125 -8.953125 L 10.203125 -3.828125 C 10.203125 -3.140625 10.207031 -2.601562 10.21875 -2.21875 C 10.238281 -1.832031 10.269531 -1.539062 10.3125 -1.34375 C 10.351562 -1.195312 10.394531 -1.082031 10.4375 -1 C 10.476562 -0.914062 10.550781 -0.847656 10.65625 -0.796875 C 10.757812 -0.742188 10.894531 -0.707031 11.0625 -0.6875 C 11.238281 -0.675781 11.46875 -0.671875 11.75 -0.671875 L 11.75 -0.015625 L 8.390625 0.1875 L 8.203125 -1.3125 L 8.140625 -1.3125 C 7.847656 -0.84375 7.4375 -0.476562 6.90625 -0.21875 C 6.375 0.0390625 5.785156 0.171875 5.140625 0.171875 C 3.929688 0.171875 3.007812 -0.253906 2.375 -1.109375 C 1.894531 -1.765625 1.65625 -2.695312 1.65625 -3.90625 L 1.65625 -6.1875 C 1.65625 -6.644531 1.644531 -7.003906 1.625 -7.265625 C 1.601562 -7.535156 1.539062 -7.738281 1.4375 -7.875 C 1.34375 -8.007812 1.195312 -8.097656 1 -8.140625 C 0.8125 -8.191406 0.550781 -8.238281 0.21875 -8.28125 L 0.21875 -8.953125 L 4 -8.953125 L 4 -4.171875 C 4 -3.035156 4.140625 -2.207031 4.421875 -1.6875 C 4.703125 -1.175781 5.15625 -0.921875 5.78125 -0.921875 C 6.4375 -0.921875 6.945312 -1.226562 7.3125 -1.84375 C 7.675781 -2.425781 7.859375 -3.285156 7.859375 -4.421875 Z M 7.859375 -6.1875 "/></g></g><g style="fill:#c8c6c6;fill-opacity:1;"><g transform="translate(254.529325, 300.361343)"><path style="stroke:none" d="M 0.421875 -8.015625 L 0.421875 -8.78125 C 1.097656 -8.96875 1.660156 -9.253906 2.109375 -9.640625 C 2.566406 -10.035156 2.910156 -10.488281 3.140625 -11 L 4 -11 L 4 -8.953125 L 5.953125 -8.953125 L 5.953125 -8.015625 L 4 -8.015625 L 4 -2.84375 C 4 -2.144531 4.070312 -1.644531 4.21875 -1.34375 C 4.375 -1.050781 4.632812 -0.90625 5 -0.90625 C 5.4375 -0.90625 5.769531 -1.109375 6 -1.515625 L 6.34375 -1.03125 C 6.03125 -0.226562 5.289062 0.171875 4.125 0.171875 C 3.34375 0.171875 2.734375 -0.00390625 2.296875 -0.359375 C 1.867188 -0.722656 1.65625 -1.234375 1.65625 -1.890625 L 1.65625 -8.015625 Z M 0.421875 -8.015625 "/></g></g><g style="fill:#c8c6c6;fill-opacity:1;"><g transform="translate(260.980028, 300.361343)"><path style="stroke:none" d="M 4.34375 -2.765625 C 4.34375 -2.316406 4.359375 -1.957031 4.390625 -1.6875 C 4.421875 -1.414062 4.488281 -1.207031 4.59375 -1.0625 C 4.695312 -0.914062 4.84375 -0.816406 5.03125 -0.765625 C 5.226562 -0.710938 5.488281 -0.679688 5.8125 -0.671875 L 5.8125 0 L 0.484375 0 L 0.484375 -0.671875 C 0.804688 -0.679688 1.0625 -0.71875 1.25 -0.78125 C 1.445312 -0.84375 1.597656 -0.941406 1.703125 -1.078125 C 1.816406 -1.222656 1.894531 -1.421875 1.9375 -1.671875 C 1.976562 -1.929688 2 -2.257812 2 -2.65625 L 2 -4.734375 C 2 -5.378906 1.984375 -5.910156 1.953125 -6.328125 C 1.929688 -6.753906 1.90625 -7.050781 1.875 -7.21875 C 1.820312 -7.5 1.695312 -7.679688 1.5 -7.765625 C 1.300781 -7.859375 0.941406 -7.90625 0.421875 -7.90625 L 0.421875 -8.484375 L 4.34375 -9.125 Z M 1.859375 -12.703125 C 1.859375 -13.078125 1.984375 -13.390625 2.234375 -13.640625 C 2.492188 -13.890625 2.800781 -14.015625 3.15625 -14.015625 C 3.53125 -14.015625 3.84375 -13.890625 4.09375 -13.640625 C 4.34375 -13.390625 4.46875 -13.078125 4.46875 -12.703125 C 4.46875 -12.335938 4.34375 -12.03125 4.09375 -11.78125 C 3.84375 -11.53125 3.53125 -11.40625 3.15625 -11.40625 C 2.800781 -11.40625 2.492188 -11.53125 2.234375 -11.78125 C 1.984375 -12.03125 1.859375 -12.335938 1.859375 -12.703125 Z M 1.859375 -12.703125 "/></g></g><g style="fill:#c8c6c6;fill-opacity:1;"><g transform="translate(267.076112, 300.361343)"><path style="stroke:none" d="M 5.546875 -9.125 C 6.210938 -9.125 6.847656 -9.003906 7.453125 -8.765625 C 8.054688 -8.535156 8.585938 -8.21875 9.046875 -7.8125 C 9.503906 -7.414062 9.863281 -6.9375 10.125 -6.375 C 10.382812 -5.820312 10.515625 -5.210938 10.515625 -4.546875 C 10.515625 -3.859375 10.382812 -3.226562 10.125 -2.65625 C 9.863281 -2.082031 9.503906 -1.585938 9.046875 -1.171875 C 8.585938 -0.753906 8.054688 -0.425781 7.453125 -0.1875 C 6.847656 0.0507812 6.210938 0.171875 5.546875 0.171875 C 4.878906 0.171875 4.242188 0.0546875 3.640625 -0.171875 C 3.046875 -0.410156 2.523438 -0.738281 2.078125 -1.15625 C 1.628906 -1.570312 1.273438 -2.066406 1.015625 -2.640625 C 0.753906 -3.222656 0.625 -3.859375 0.625 -4.546875 C 0.625 -5.210938 0.753906 -5.828125 1.015625 -6.390625 C 1.273438 -6.953125 1.628906 -7.429688 2.078125 -7.828125 C 2.523438 -8.234375 3.046875 -8.550781 3.640625 -8.78125 C 4.242188 -9.007812 4.878906 -9.125 5.546875 -9.125 Z M 5.546875 -8.140625 C 5.203125 -8.140625 4.890625 -8.050781 4.609375 -7.875 C 4.328125 -7.707031 4.085938 -7.460938 3.890625 -7.140625 C 3.691406 -6.828125 3.539062 -6.445312 3.4375 -6 C 3.332031 -5.5625 3.28125 -5.070312 3.28125 -4.53125 C 3.28125 -3.96875 3.332031 -3.457031 3.4375 -3 C 3.539062 -2.550781 3.691406 -2.171875 3.890625 -1.859375 C 4.085938 -1.546875 4.320312 -1.300781 4.59375 -1.125 C 4.875 -0.945312 5.191406 -0.859375 5.546875 -0.859375 C 5.890625 -0.859375 6.203125 -0.945312 6.484375 -1.125 C 6.773438 -1.300781 7.019531 -1.546875 7.21875 -1.859375 C 7.425781 -2.179688 7.585938 -2.566406 7.703125 -3.015625 C 7.816406 -3.472656 7.875 -3.976562 7.875 -4.53125 C 7.875 -5.070312 7.816406 -5.5625 7.703125 -6 C 7.585938 -6.4375 7.425781 -6.816406 7.21875 -7.140625 C 7.019531 -7.460938 6.773438 -7.707031 6.484375 -7.875 C 6.203125 -8.050781 5.890625 -8.140625 5.546875 -8.140625 Z M 5.546875 -8.140625 "/></g></g><g style="fill:#c8c6c6;fill-opacity:1;"><g transform="translate(278.221306, 300.361343)"><path style="stroke:none" d="M 4.34375 -2.75 C 4.34375 -2.289062 4.351562 -1.925781 4.375 -1.65625 C 4.40625 -1.394531 4.46875 -1.191406 4.5625 -1.046875 C 4.664062 -0.910156 4.8125 -0.816406 5 -0.765625 C 5.195312 -0.722656 5.46875 -0.691406 5.8125 -0.671875 L 5.8125 0 L 0.484375 0 L 0.484375 -0.671875 C 0.816406 -0.691406 1.082031 -0.722656 1.28125 -0.765625 C 1.476562 -0.816406 1.628906 -0.910156 1.734375 -1.046875 C 1.835938 -1.179688 1.90625 -1.375 1.9375 -1.625 C 1.976562 -1.875 2 -2.210938 2 -2.640625 L 2 -4.75 C 2 -5.414062 1.984375 -5.953125 1.953125 -6.359375 C 1.929688 -6.765625 1.90625 -7.046875 1.875 -7.203125 C 1.84375 -7.347656 1.796875 -7.46875 1.734375 -7.5625 C 1.679688 -7.65625 1.597656 -7.726562 1.484375 -7.78125 C 1.367188 -7.832031 1.226562 -7.863281 1.0625 -7.875 C 0.894531 -7.894531 0.679688 -7.90625 0.421875 -7.90625 L 0.421875 -8.484375 L 3.6875 -9.125 L 3.90625 -7.640625 L 3.96875 -7.640625 C 4.34375 -8.109375 4.78125 -8.472656 5.28125 -8.734375 C 5.789062 -8.992188 6.347656 -9.125 6.953125 -9.125 C 7.679688 -9.125 8.265625 -9.023438 8.703125 -8.828125 C 9.148438 -8.628906 9.546875 -8.300781 9.890625 -7.84375 C 10.085938 -7.582031 10.257812 -7.242188 10.40625 -6.828125 C 10.550781 -6.421875 10.625 -5.859375 10.625 -5.140625 L 10.625 -2.75 C 10.625 -2.289062 10.632812 -1.925781 10.65625 -1.65625 C 10.6875 -1.394531 10.75 -1.191406 10.84375 -1.046875 C 10.945312 -0.910156 11.09375 -0.816406 11.28125 -0.765625 C 11.46875 -0.722656 11.726562 -0.691406 12.0625 -0.671875 L 12.0625 0 L 6.765625 0 L 6.765625 -0.671875 C 7.109375 -0.679688 7.378906 -0.710938 7.578125 -0.765625 C 7.773438 -0.816406 7.921875 -0.910156 8.015625 -1.046875 C 8.117188 -1.179688 8.1875 -1.375 8.21875 -1.625 C 8.257812 -1.882812 8.28125 -2.222656 8.28125 -2.640625 L 8.28125 -4.9375 C 8.28125 -5.507812 8.242188 -5.988281 8.171875 -6.375 C 8.109375 -6.769531 8 -7.085938 7.84375 -7.328125 C 7.695312 -7.578125 7.5 -7.753906 7.25 -7.859375 C 7 -7.960938 6.6875 -8.015625 6.3125 -8.015625 C 5.957031 -8.015625 5.648438 -7.914062 5.390625 -7.71875 C 5.128906 -7.519531 4.90625 -7.238281 4.71875 -6.875 C 4.613281 -6.675781 4.523438 -6.414062 4.453125 -6.09375 C 4.378906 -5.769531 4.34375 -5.429688 4.34375 -5.078125 Z M 4.34375 -2.75 "/></g></g><g style="fill:#c8c6c6;fill-opacity:1;"><g transform="translate(290.497909, 300.361343)"><path style="stroke:none" d="M 1.4375 0 L 0.90625 0 L 0.90625 -3.078125 L 1.625 -3.078125 C 1.8125 -2.265625 2.082031 -1.671875 2.4375 -1.296875 C 2.800781 -0.929688 3.269531 -0.75 3.84375 -0.75 C 4.257812 -0.75 4.582031 -0.832031 4.8125 -1 C 5.050781 -1.175781 5.171875 -1.414062 5.171875 -1.71875 C 5.171875 -2.039062 5.03125 -2.347656 4.75 -2.640625 C 4.46875 -2.941406 4.007812 -3.257812 3.375 -3.59375 C 2.519531 -4.0625 1.90625 -4.519531 1.53125 -4.96875 C 1.164062 -5.425781 0.984375 -5.941406 0.984375 -6.515625 C 0.984375 -6.890625 1.050781 -7.238281 1.1875 -7.5625 C 1.332031 -7.882812 1.523438 -8.160156 1.765625 -8.390625 C 2.003906 -8.628906 2.289062 -8.8125 2.625 -8.9375 C 2.96875 -9.070312 3.335938 -9.140625 3.734375 -9.140625 C 4.078125 -9.140625 4.421875 -9.085938 4.765625 -8.984375 C 5.109375 -8.878906 5.410156 -8.738281 5.671875 -8.5625 L 5.984375 -8.96875 L 6.421875 -8.96875 L 6.421875 -6.421875 L 5.765625 -6.421875 C 5.503906 -7.054688 5.234375 -7.515625 4.953125 -7.796875 C 4.679688 -8.078125 4.347656 -8.21875 3.953125 -8.21875 C 3.640625 -8.21875 3.390625 -8.132812 3.203125 -7.96875 C 3.015625 -7.800781 2.921875 -7.578125 2.921875 -7.296875 C 2.921875 -6.984375 3.054688 -6.6875 3.328125 -6.40625 C 3.609375 -6.125 4.070312 -5.8125 4.71875 -5.46875 C 5.164062 -5.21875 5.550781 -4.972656 5.875 -4.734375 C 6.207031 -4.503906 6.472656 -4.269531 6.671875 -4.03125 C 6.867188 -3.789062 7.015625 -3.535156 7.109375 -3.265625 C 7.210938 -3.003906 7.265625 -2.722656 7.265625 -2.421875 C 7.265625 -2.023438 7.191406 -1.664062 7.046875 -1.34375 C 6.898438 -1.03125 6.691406 -0.757812 6.421875 -0.53125 C 6.148438 -0.3125 5.820312 -0.140625 5.4375 -0.015625 C 5.0625 0.109375 4.644531 0.171875 4.1875 0.171875 C 3.707031 0.171875 3.257812 0.109375 2.84375 -0.015625 C 2.425781 -0.148438 2.082031 -0.34375 1.8125 -0.59375 Z M 1.4375 0 "/></g></g><g style="fill:#000000;fill-opacity:1;"><g transform="translate(77.109802, 299.91893)"><path style="stroke:none" d="M 9.765625 -3.140625 L 13.65625 -12.953125 L 18.5625 -12.953125 L 18.5625 -12.265625 C 18.1875 -12.265625 17.882812 -12.226562 17.65625 -12.15625 C 17.425781 -12.082031 17.25 -11.953125 17.125 -11.765625 C 17.007812 -11.578125 16.929688 -11.316406 16.890625 -10.984375 C 16.847656 -10.648438 16.828125 -10.234375 16.828125 -9.734375 L 16.828125 -3.21875 C 16.828125 -2.65625 16.847656 -2.207031 16.890625 -1.875 C 16.941406 -1.550781 17.035156 -1.300781 17.171875 -1.125 C 17.304688 -0.945312 17.5 -0.828125 17.75 -0.765625 C 18 -0.710938 18.332031 -0.679688 18.75 -0.671875 L 18.75 0 L 12.421875 0 L 12.421875 -0.671875 C 12.835938 -0.679688 13.171875 -0.71875 13.421875 -0.78125 C 13.671875 -0.84375 13.863281 -0.957031 14 -1.125 C 14.144531 -1.289062 14.238281 -1.523438 14.28125 -1.828125 C 14.332031 -2.140625 14.359375 -2.5625 14.359375 -3.09375 L 14.359375 -10.96875 L 14.28125 -10.96875 L 9.75 0.171875 L 8.5 0.171875 L 3.828125 -10.96875 L 3.765625 -10.96875 L 3.765625 -3.21875 C 3.765625 -2.65625 3.785156 -2.207031 3.828125 -1.875 C 3.878906 -1.550781 3.96875 -1.300781 4.09375 -1.125 C 4.226562 -0.945312 4.421875 -0.828125 4.671875 -0.765625 C 4.929688 -0.710938 5.269531 -0.679688 5.6875 -0.671875 L 5.6875 0 L 0.5 0 L 0.5 -0.671875 C 0.914062 -0.679688 1.253906 -0.71875 1.515625 -0.78125 C 1.773438 -0.84375 1.972656 -0.957031 2.109375 -1.125 C 2.242188 -1.289062 2.332031 -1.523438 2.375 -1.828125 C 2.425781 -2.140625 2.453125 -2.5625 2.453125 -3.09375 L 2.453125 -9.859375 C 2.453125 -10.328125 2.425781 -10.71875 2.375 -11.03125 C 2.332031 -11.34375 2.25 -11.585938 2.125 -11.765625 C 2.007812 -11.953125 1.835938 -12.082031 1.609375 -12.15625 C 1.378906 -12.226562 1.070312 -12.265625 0.6875 -12.265625 L 0.6875 -12.953125 L 5.78125 -12.953125 L 9.703125 -3.140625 Z M 9.765625 -3.140625 "/></g></g><g style="fill:#000000;fill-opacity:1;"><g transform="translate(96.006672, 299.91893)"><path style="stroke:none" d="M 7.8125 -6.15625 C 7.8125 -6.601562 7.800781 -6.957031 7.78125 -7.21875 C 7.757812 -7.476562 7.695312 -7.675781 7.59375 -7.8125 C 7.5 -7.957031 7.351562 -8.054688 7.15625 -8.109375 C 6.957031 -8.160156 6.691406 -8.203125 6.359375 -8.234375 L 6.359375 -8.90625 L 10.15625 -8.90625 L 10.15625 -3.8125 C 10.15625 -3.132812 10.160156 -2.597656 10.171875 -2.203125 C 10.191406 -1.816406 10.222656 -1.53125 10.265625 -1.34375 C 10.304688 -1.195312 10.347656 -1.082031 10.390625 -1 C 10.429688 -0.914062 10.503906 -0.847656 10.609375 -0.796875 C 10.710938 -0.742188 10.847656 -0.707031 11.015625 -0.6875 C 11.191406 -0.675781 11.421875 -0.671875 11.703125 -0.671875 L 11.703125 -0.015625 L 8.359375 0.1875 L 8.171875 -1.3125 L 8.109375 -1.3125 C 7.816406 -0.84375 7.40625 -0.476562 6.875 -0.21875 C 6.351562 0.0390625 5.765625 0.171875 5.109375 0.171875 C 3.910156 0.171875 3 -0.253906 2.375 -1.109375 C 1.882812 -1.753906 1.640625 -2.679688 1.640625 -3.890625 L 1.640625 -6.15625 C 1.640625 -6.613281 1.628906 -6.972656 1.609375 -7.234375 C 1.585938 -7.503906 1.53125 -7.703125 1.4375 -7.828125 C 1.34375 -7.960938 1.195312 -8.054688 1 -8.109375 C 0.8125 -8.160156 0.550781 -8.203125 0.21875 -8.234375 L 0.21875 -8.90625 L 3.984375 -8.90625 L 3.984375 -4.15625 C 3.984375 -3.019531 4.125 -2.195312 4.40625 -1.6875 C 4.6875 -1.175781 5.132812 -0.921875 5.75 -0.921875 C 6.40625 -0.921875 6.914062 -1.222656 7.28125 -1.828125 C 7.632812 -2.410156 7.8125 -3.269531 7.8125 -4.40625 Z M 7.8125 -6.15625 "/></g></g><g style="fill:#000000;fill-opacity:1;"><g transform="translate(107.926541, 299.91893)"><path style="stroke:none" d="M 4.328125 -2.734375 C 4.328125 -2.273438 4.335938 -1.914062 4.359375 -1.65625 C 4.390625 -1.394531 4.453125 -1.191406 4.546875 -1.046875 C 4.640625 -0.910156 4.785156 -0.816406 4.984375 -0.765625 C 5.179688 -0.722656 5.445312 -0.691406 5.78125 -0.671875 L 5.78125 0 L 0.484375 0 L 0.484375 -0.671875 C 0.804688 -0.691406 1.066406 -0.722656 1.265625 -0.765625 C 1.460938 -0.816406 1.613281 -0.910156 1.71875 -1.046875 C 1.832031 -1.179688 1.90625 -1.367188 1.9375 -1.609375 C 1.96875 -1.859375 1.984375 -2.195312 1.984375 -2.625 L 1.984375 -4.71875 C 1.984375 -5.382812 1.972656 -5.921875 1.953125 -6.328125 C 1.929688 -6.734375 1.898438 -7.007812 1.859375 -7.15625 C 1.828125 -7.300781 1.78125 -7.421875 1.71875 -7.515625 C 1.664062 -7.617188 1.582031 -7.691406 1.46875 -7.734375 C 1.363281 -7.785156 1.226562 -7.820312 1.0625 -7.84375 C 0.894531 -7.863281 0.679688 -7.875 0.421875 -7.875 L 0.421875 -8.4375 L 3.671875 -9.078125 L 3.890625 -7.59375 L 3.953125 -7.59375 C 4.316406 -8.070312 4.75 -8.4375 5.25 -8.6875 C 5.757812 -8.945312 6.316406 -9.078125 6.921875 -9.078125 C 7.640625 -9.078125 8.21875 -8.976562 8.65625 -8.78125 C 9.101562 -8.582031 9.503906 -8.253906 9.859375 -7.796875 C 10.046875 -7.546875 10.210938 -7.210938 10.359375 -6.796875 C 10.503906 -6.390625 10.578125 -5.828125 10.578125 -5.109375 L 10.578125 -2.734375 C 10.578125 -2.273438 10.585938 -1.914062 10.609375 -1.65625 C 10.640625 -1.394531 10.703125 -1.191406 10.796875 -1.046875 C 10.890625 -0.910156 11.03125 -0.816406 11.21875 -0.765625 C 11.414062 -0.722656 11.675781 -0.691406 12 -0.671875 L 12 0 L 6.734375 0 L 6.734375 -0.671875 C 7.078125 -0.679688 7.34375 -0.710938 7.53125 -0.765625 C 7.726562 -0.816406 7.878906 -0.910156 7.984375 -1.046875 C 8.085938 -1.179688 8.15625 -1.375 8.1875 -1.625 C 8.21875 -1.875 8.234375 -2.207031 8.234375 -2.625 L 8.234375 -4.90625 C 8.234375 -5.476562 8.195312 -5.957031 8.125 -6.34375 C 8.0625 -6.738281 7.953125 -7.054688 7.796875 -7.296875 C 7.648438 -7.546875 7.453125 -7.722656 7.203125 -7.828125 C 6.960938 -7.929688 6.65625 -7.984375 6.28125 -7.984375 C 5.925781 -7.984375 5.617188 -7.878906 5.359375 -7.671875 C 5.097656 -7.472656 4.875 -7.195312 4.6875 -6.84375 C 4.59375 -6.644531 4.507812 -6.382812 4.4375 -6.0625 C 4.363281 -5.738281 4.328125 -5.40625 4.328125 -5.0625 Z M 4.328125 -2.734375 "/></g></g><g style="fill:#000000;fill-opacity:1;"><g transform="translate(120.149032, 299.91893)"><path style="stroke:none" d="M 4.328125 -2.75 C 4.328125 -2.300781 4.34375 -1.941406 4.375 -1.671875 C 4.40625 -1.410156 4.46875 -1.207031 4.5625 -1.0625 C 4.664062 -0.914062 4.8125 -0.816406 5 -0.765625 C 5.195312 -0.710938 5.457031 -0.679688 5.78125 -0.671875 L 5.78125 0 L 0.484375 0 L 0.484375 -0.671875 C 0.796875 -0.679688 1.050781 -0.71875 1.25 -0.78125 C 1.445312 -0.84375 1.597656 -0.941406 1.703125 -1.078125 C 1.804688 -1.222656 1.878906 -1.421875 1.921875 -1.671875 C 1.960938 -1.921875 1.984375 -2.242188 1.984375 -2.640625 L 1.984375 -4.703125 C 1.984375 -5.359375 1.972656 -5.894531 1.953125 -6.3125 C 1.929688 -6.726562 1.898438 -7.015625 1.859375 -7.171875 C 1.804688 -7.453125 1.679688 -7.640625 1.484375 -7.734375 C 1.285156 -7.828125 0.929688 -7.875 0.421875 -7.875 L 0.421875 -8.4375 L 4.328125 -9.078125 Z M 1.84375 -12.640625 C 1.84375 -13.015625 1.96875 -13.328125 2.21875 -13.578125 C 2.476562 -13.828125 2.785156 -13.953125 3.140625 -13.953125 C 3.515625 -13.953125 3.828125 -13.828125 4.078125 -13.578125 C 4.328125 -13.328125 4.453125 -13.015625 4.453125 -12.640625 C 4.453125 -12.285156 4.328125 -11.976562 4.078125 -11.71875 C 3.828125 -11.46875 3.515625 -11.34375 3.140625 -11.34375 C 2.785156 -11.34375 2.476562 -11.46875 2.21875 -11.71875 C 1.96875 -11.976562 1.84375 -12.285156 1.84375 -12.640625 Z M 1.84375 -12.640625 "/></g></g><g style="fill:#000000;fill-opacity:1;"><g transform="translate(126.218249, 299.91893)"><path style="stroke:none" d="M 8.875 -1.390625 C 8.445312 -0.921875 7.914062 -0.554688 7.28125 -0.296875 C 6.65625 -0.046875 5.972656 0.078125 5.234375 0.078125 C 4.546875 0.078125 3.921875 -0.03125 3.359375 -0.25 C 2.796875 -0.46875 2.3125 -0.769531 1.90625 -1.15625 C 1.507812 -1.550781 1.203125 -2.023438 0.984375 -2.578125 C 0.765625 -3.128906 0.65625 -3.742188 0.65625 -4.421875 C 0.65625 -5.117188 0.769531 -5.75 1 -6.3125 C 1.238281 -6.882812 1.570312 -7.375 2 -7.78125 C 2.425781 -8.195312 2.9375 -8.515625 3.53125 -8.734375 C 4.125 -8.960938 4.78125 -9.078125 5.5 -9.078125 C 6 -9.078125 6.460938 -9.023438 6.890625 -8.921875 C 7.328125 -8.828125 7.695312 -8.6875 8 -8.5 C 8.3125 -8.320312 8.554688 -8.113281 8.734375 -7.875 C 8.921875 -7.632812 9.015625 -7.375 9.015625 -7.09375 C 9.015625 -6.769531 8.921875 -6.507812 8.734375 -6.3125 C 8.546875 -6.125 8.296875 -6.03125 7.984375 -6.03125 C 7.722656 -6.03125 7.492188 -6.097656 7.296875 -6.234375 C 7.109375 -6.367188 6.914062 -6.585938 6.71875 -6.890625 C 6.550781 -7.160156 6.410156 -7.375 6.296875 -7.53125 C 6.179688 -7.6875 6.070312 -7.804688 5.96875 -7.890625 C 5.863281 -7.972656 5.757812 -8.03125 5.65625 -8.0625 C 5.5625 -8.09375 5.441406 -8.109375 5.296875 -8.109375 C 4.648438 -8.109375 4.144531 -7.800781 3.78125 -7.1875 C 3.425781 -6.582031 3.25 -5.738281 3.25 -4.65625 C 3.25 -3.488281 3.460938 -2.59375 3.890625 -1.96875 C 4.328125 -1.34375 4.945312 -1.03125 5.75 -1.03125 C 6.207031 -1.03125 6.664062 -1.113281 7.125 -1.28125 C 7.582031 -1.457031 8.019531 -1.707031 8.4375 -2.03125 Z M 8.875 -1.390625 "/></g></g><g style="fill:#000000;fill-opacity:1;"><g transform="translate(135.700346, 299.91893)"><path style="stroke:none" d="M 4.109375 -2.75 C 4.109375 -2.289062 4.117188 -1.929688 4.140625 -1.671875 C 4.171875 -1.410156 4.234375 -1.207031 4.328125 -1.0625 C 4.421875 -0.914062 4.566406 -0.816406 4.765625 -0.765625 C 4.960938 -0.722656 5.226562 -0.691406 5.5625 -0.671875 L 5.5625 0 L 0.265625 0 L 0.265625 -0.671875 C 0.597656 -0.691406 0.863281 -0.722656 1.0625 -0.765625 C 1.269531 -0.816406 1.425781 -0.910156 1.53125 -1.046875 C 1.632812 -1.179688 1.695312 -1.375 1.71875 -1.625 C 1.75 -1.875 1.765625 -2.210938 1.765625 -2.640625 L 1.765625 -9.546875 C 1.765625 -10.222656 1.753906 -10.753906 1.734375 -11.140625 C 1.722656 -11.523438 1.691406 -11.816406 1.640625 -12.015625 C 1.609375 -12.160156 1.570312 -12.273438 1.53125 -12.359375 C 1.488281 -12.441406 1.414062 -12.507812 1.3125 -12.5625 C 1.21875 -12.613281 1.085938 -12.644531 0.921875 -12.65625 C 0.765625 -12.675781 0.5625 -12.6875 0.3125 -12.6875 L 0.3125 -13.3125 L 4.0625 -13.953125 L 4.0625 -7.75 L 4.140625 -7.75 C 4.484375 -8.207031 4.867188 -8.539062 5.296875 -8.75 C 5.734375 -8.96875 6.253906 -9.078125 6.859375 -9.078125 C 7.953125 -9.078125 8.804688 -8.738281 9.421875 -8.0625 C 9.710938 -7.726562 9.941406 -7.320312 10.109375 -6.84375 C 10.273438 -6.375 10.359375 -5.878906 10.359375 -5.359375 L 10.359375 -2.75 C 10.359375 -2.28125 10.367188 -1.914062 10.390625 -1.65625 C 10.410156 -1.394531 10.46875 -1.191406 10.5625 -1.046875 C 10.65625 -0.910156 10.796875 -0.816406 10.984375 -0.765625 C 11.179688 -0.722656 11.445312 -0.691406 11.78125 -0.671875 L 11.78125 0 L 6.515625 0 L 6.515625 -0.671875 C 6.859375 -0.679688 7.125 -0.710938 7.3125 -0.765625 C 7.507812 -0.816406 7.660156 -0.910156 7.765625 -1.046875 C 7.878906 -1.179688 7.945312 -1.375 7.96875 -1.625 C 8 -1.875 8.015625 -2.210938 8.015625 -2.640625 L 8.015625 -4.703125 C 8.015625 -5.890625 7.882812 -6.726562 7.625 -7.21875 C 7.375 -7.71875 6.9375 -7.96875 6.3125 -7.96875 C 5.632812 -7.96875 5.097656 -7.722656 4.703125 -7.234375 C 4.515625 -6.972656 4.367188 -6.648438 4.265625 -6.265625 C 4.160156 -5.890625 4.109375 -5.46875 4.109375 -5 Z M 4.109375 -2.75 "/></g></g><g style="fill:#000000;fill-opacity:1;"><g transform="translate(147.704285, 299.91893)"><path style="stroke:none" d=""/></g></g><g style="fill:#000000;fill-opacity:1;"><g transform="translate(152.176345, 299.91893)"><path style="stroke:none" d="M 12.171875 0 L 0.59375 0 L 0.59375 -0.671875 C 0.957031 -0.679688 1.253906 -0.710938 1.484375 -0.765625 C 1.722656 -0.828125 1.90625 -0.925781 2.03125 -1.0625 C 2.15625 -1.195312 2.238281 -1.382812 2.28125 -1.625 C 2.332031 -1.875 2.359375 -2.195312 2.359375 -2.59375 L 2.359375 -10.359375 C 2.359375 -10.742188 2.335938 -11.054688 2.296875 -11.296875 C 2.253906 -11.546875 2.175781 -11.738281 2.0625 -11.875 C 1.957031 -12.019531 1.800781 -12.113281 1.59375 -12.15625 C 1.382812 -12.207031 1.109375 -12.242188 0.765625 -12.265625 L 0.765625 -12.953125 L 6.578125 -12.953125 L 6.578125 -12.265625 C 6.191406 -12.253906 5.882812 -12.222656 5.65625 -12.171875 C 5.425781 -12.117188 5.25 -12.019531 5.125 -11.875 C 5 -11.726562 4.914062 -11.523438 4.875 -11.265625 C 4.84375 -11.003906 4.828125 -10.660156 4.828125 -10.234375 L 4.828125 -3.1875 C 4.828125 -2.71875 4.875 -2.332031 4.96875 -2.03125 C 5.0625 -1.738281 5.222656 -1.507812 5.453125 -1.34375 C 5.691406 -1.1875 6.007812 -1.078125 6.40625 -1.015625 C 6.800781 -0.953125 7.289062 -0.921875 7.875 -0.921875 C 8.519531 -0.921875 9.0625 -0.957031 9.5 -1.03125 C 9.9375 -1.113281 10.300781 -1.265625 10.59375 -1.484375 C 10.894531 -1.703125 11.132812 -1.992188 11.3125 -2.359375 C 11.488281 -2.734375 11.640625 -3.21875 11.765625 -3.8125 L 12.4375 -3.8125 Z M 12.171875 0 "/></g></g><g style="fill:#000000;fill-opacity:1;"><g transform="translate(164.869573, 299.91893)"><path style="stroke:none" d="M 4.328125 -2.75 C 4.328125 -2.300781 4.34375 -1.941406 4.375 -1.671875 C 4.40625 -1.410156 4.46875 -1.207031 4.5625 -1.0625 C 4.664062 -0.914062 4.8125 -0.816406 5 -0.765625 C 5.195312 -0.710938 5.457031 -0.679688 5.78125 -0.671875 L 5.78125 0 L 0.484375 0 L 0.484375 -0.671875 C 0.796875 -0.679688 1.050781 -0.71875 1.25 -0.78125 C 1.445312 -0.84375 1.597656 -0.941406 1.703125 -1.078125 C 1.804688 -1.222656 1.878906 -1.421875 1.921875 -1.671875 C 1.960938 -1.921875 1.984375 -2.242188 1.984375 -2.640625 L 1.984375 -4.703125 C 1.984375 -5.359375 1.972656 -5.894531 1.953125 -6.3125 C 1.929688 -6.726562 1.898438 -7.015625 1.859375 -7.171875 C 1.804688 -7.453125 1.679688 -7.640625 1.484375 -7.734375 C 1.285156 -7.828125 0.929688 -7.875 0.421875 -7.875 L 0.421875 -8.4375 L 4.328125 -9.078125 Z M 1.84375 -12.640625 C 1.84375 -13.015625 1.96875 -13.328125 2.21875 -13.578125 C 2.476562 -13.828125 2.785156 -13.953125 3.140625 -13.953125 C 3.515625 -13.953125 3.828125 -13.828125 4.078125 -13.578125 C 4.328125 -13.328125 4.453125 -13.015625 4.453125 -12.640625 C 4.453125 -12.285156 4.328125 -11.976562 4.078125 -11.71875 C 3.828125 -11.46875 3.515625 -11.34375 3.140625 -11.34375 C 2.785156 -11.34375 2.476562 -11.46875 2.21875 -11.71875 C 1.96875 -11.976562 1.84375 -12.285156 1.84375 -12.640625 Z M 1.84375 -12.640625 "/></g></g><g style="fill:#000000;fill-opacity:1;"><g transform="translate(170.770635, 299.91893)"><path style="stroke:none" d="M 1.703125 -6.734375 C 1.578125 -7.066406 1.457031 -7.328125 1.34375 -7.515625 C 1.226562 -7.710938 1.113281 -7.863281 1 -7.96875 C 0.882812 -8.082031 0.753906 -8.15625 0.609375 -8.1875 C 0.472656 -8.21875 0.3125 -8.234375 0.125 -8.234375 L 0.125 -8.90625 L 5.140625 -8.90625 L 5.140625 -8.234375 C 4.859375 -8.234375 4.632812 -8.222656 4.46875 -8.203125 C 4.3125 -8.179688 4.191406 -8.144531 4.109375 -8.09375 C 4.023438 -8.050781 3.972656 -7.992188 3.953125 -7.921875 C 3.929688 -7.847656 3.921875 -7.769531 3.921875 -7.6875 C 3.921875 -7.539062 3.945312 -7.367188 4 -7.171875 C 4.050781 -6.984375 4.117188 -6.796875 4.203125 -6.609375 L 5.796875 -2.203125 L 5.875 -2.203125 L 7.671875 -6.59375 C 7.742188 -6.78125 7.800781 -6.945312 7.84375 -7.09375 C 7.894531 -7.25 7.921875 -7.390625 7.921875 -7.515625 C 7.921875 -7.765625 7.835938 -7.941406 7.671875 -8.046875 C 7.503906 -8.160156 7.207031 -8.222656 6.78125 -8.234375 L 6.78125 -8.90625 L 10.484375 -8.90625 L 10.484375 -8.234375 C 10.179688 -8.234375 9.921875 -8.15625 9.703125 -8 C 9.484375 -7.84375 9.257812 -7.492188 9.03125 -6.953125 L 5.890625 0.171875 L 4.359375 0.171875 Z M 1.703125 -6.734375 "/></g></g><g style="fill:#000000;fill-opacity:1;"><g transform="translate(181.261474, 299.91893)"><path style="stroke:none" d="M 4.328125 -2.75 C 4.328125 -2.300781 4.34375 -1.941406 4.375 -1.671875 C 4.40625 -1.410156 4.46875 -1.207031 4.5625 -1.0625 C 4.664062 -0.914062 4.8125 -0.816406 5 -0.765625 C 5.195312 -0.710938 5.457031 -0.679688 5.78125 -0.671875 L 5.78125 0 L 0.484375 0 L 0.484375 -0.671875 C 0.796875 -0.679688 1.050781 -0.71875 1.25 -0.78125 C 1.445312 -0.84375 1.597656 -0.941406 1.703125 -1.078125 C 1.804688 -1.222656 1.878906 -1.421875 1.921875 -1.671875 C 1.960938 -1.921875 1.984375 -2.242188 1.984375 -2.640625 L 1.984375 -4.703125 C 1.984375 -5.359375 1.972656 -5.894531 1.953125 -6.3125 C 1.929688 -6.726562 1.898438 -7.015625 1.859375 -7.171875 C 1.804688 -7.453125 1.679688 -7.640625 1.484375 -7.734375 C 1.285156 -7.828125 0.929688 -7.875 0.421875 -7.875 L 0.421875 -8.4375 L 4.328125 -9.078125 Z M 1.84375 -12.640625 C 1.84375 -13.015625 1.96875 -13.328125 2.21875 -13.578125 C 2.476562 -13.828125 2.785156 -13.953125 3.140625 -13.953125 C 3.515625 -13.953125 3.828125 -13.828125 4.078125 -13.578125 C 4.328125 -13.328125 4.453125 -13.015625 4.453125 -12.640625 C 4.453125 -12.285156 4.328125 -11.976562 4.078125 -11.71875 C 3.828125 -11.46875 3.515625 -11.34375 3.140625 -11.34375 C 2.785156 -11.34375 2.476562 -11.46875 2.21875 -11.71875 C 1.96875 -11.976562 1.84375 -12.285156 1.84375 -12.640625 Z M 1.84375 -12.640625 "/></g></g><g style="fill:#000000;fill-opacity:1;"><g transform="translate(187.330691, 299.91893)"><path style="stroke:none" d="M 4.328125 -2.734375 C 4.328125 -2.273438 4.335938 -1.914062 4.359375 -1.65625 C 4.390625 -1.394531 4.453125 -1.191406 4.546875 -1.046875 C 4.640625 -0.910156 4.785156 -0.816406 4.984375 -0.765625 C 5.179688 -0.722656 5.445312 -0.691406 5.78125 -0.671875 L 5.78125 0 L 0.484375 0 L 0.484375 -0.671875 C 0.804688 -0.691406 1.066406 -0.722656 1.265625 -0.765625 C 1.460938 -0.816406 1.613281 -0.910156 1.71875 -1.046875 C 1.832031 -1.179688 1.90625 -1.367188 1.9375 -1.609375 C 1.96875 -1.859375 1.984375 -2.195312 1.984375 -2.625 L 1.984375 -4.71875 C 1.984375 -5.382812 1.972656 -5.921875 1.953125 -6.328125 C 1.929688 -6.734375 1.898438 -7.007812 1.859375 -7.15625 C 1.828125 -7.300781 1.78125 -7.421875 1.71875 -7.515625 C 1.664062 -7.617188 1.582031 -7.691406 1.46875 -7.734375 C 1.363281 -7.785156 1.226562 -7.820312 1.0625 -7.84375 C 0.894531 -7.863281 0.679688 -7.875 0.421875 -7.875 L 0.421875 -8.4375 L 3.671875 -9.078125 L 3.890625 -7.59375 L 3.953125 -7.59375 C 4.316406 -8.070312 4.75 -8.4375 5.25 -8.6875 C 5.757812 -8.945312 6.316406 -9.078125 6.921875 -9.078125 C 7.640625 -9.078125 8.21875 -8.976562 8.65625 -8.78125 C 9.101562 -8.582031 9.503906 -8.253906 9.859375 -7.796875 C 10.046875 -7.546875 10.210938 -7.210938 10.359375 -6.796875 C 10.503906 -6.390625 10.578125 -5.828125 10.578125 -5.109375 L 10.578125 -2.734375 C 10.578125 -2.273438 10.585938 -1.914062 10.609375 -1.65625 C 10.640625 -1.394531 10.703125 -1.191406 10.796875 -1.046875 C 10.890625 -0.910156 11.03125 -0.816406 11.21875 -0.765625 C 11.414062 -0.722656 11.675781 -0.691406 12 -0.671875 L 12 0 L 6.734375 0 L 6.734375 -0.671875 C 7.078125 -0.679688 7.34375 -0.710938 7.53125 -0.765625 C 7.726562 -0.816406 7.878906 -0.910156 7.984375 -1.046875 C 8.085938 -1.179688 8.15625 -1.375 8.1875 -1.625 C 8.21875 -1.875 8.234375 -2.207031 8.234375 -2.625 L 8.234375 -4.90625 C 8.234375 -5.476562 8.195312 -5.957031 8.125 -6.34375 C 8.0625 -6.738281 7.953125 -7.054688 7.796875 -7.296875 C 7.648438 -7.546875 7.453125 -7.722656 7.203125 -7.828125 C 6.960938 -7.929688 6.65625 -7.984375 6.28125 -7.984375 C 5.925781 -7.984375 5.617188 -7.878906 5.359375 -7.671875 C 5.097656 -7.472656 4.875 -7.195312 4.6875 -6.84375 C 4.59375 -6.644531 4.507812 -6.382812 4.4375 -6.0625 C 4.363281 -5.738281 4.328125 -5.40625 4.328125 -5.0625 Z M 4.328125 -2.734375 "/></g></g><g style="fill:#000000;fill-opacity:1;"><g transform="translate(199.553182, 299.91893)"><path style="stroke:none" d="M 3.828125 -1.8125 C 4.128906 -1.789062 4.394531 -1.769531 4.625 -1.75 C 4.851562 -1.726562 5.070312 -1.703125 5.28125 -1.671875 C 5.488281 -1.640625 5.695312 -1.609375 5.90625 -1.578125 C 6.113281 -1.554688 6.335938 -1.53125 6.578125 -1.5 C 7.453125 -1.375 8.132812 -1.046875 8.625 -0.515625 C 9.125 0.015625 9.375 0.675781 9.375 1.46875 C 9.375 2.414062 8.984375 3.132812 8.203125 3.625 C 7.421875 4.125 6.265625 4.375 4.734375 4.375 C 3.335938 4.375 2.257812 4.164062 1.5 3.75 C 0.75 3.34375 0.375 2.765625 0.375 2.015625 C 0.375 1.429688 0.523438 0.988281 0.828125 0.6875 C 1.128906 0.394531 1.507812 0.25 1.96875 0.25 C 2.257812 0.25 2.539062 0.304688 2.8125 0.421875 C 3.09375 0.546875 3.328125 0.71875 3.515625 0.9375 C 3.222656 1 2.984375 1.128906 2.796875 1.328125 C 2.609375 1.535156 2.515625 1.78125 2.515625 2.0625 C 2.515625 2.507812 2.710938 2.851562 3.109375 3.09375 C 3.515625 3.34375 4.101562 3.46875 4.875 3.46875 C 6.550781 3.46875 7.390625 2.929688 7.390625 1.859375 C 7.390625 1.484375 7.265625 1.15625 7.015625 0.875 C 6.765625 0.601562 6.40625 0.441406 5.9375 0.390625 L 3 -0.015625 C 1.75 -0.179688 1.125 -0.738281 1.125 -1.6875 C 1.125 -2.144531 1.269531 -2.519531 1.5625 -2.8125 C 1.863281 -3.101562 2.289062 -3.300781 2.84375 -3.40625 L 2.84375 -3.484375 C 2.582031 -3.578125 2.347656 -3.710938 2.140625 -3.890625 C 1.929688 -4.078125 1.75 -4.285156 1.59375 -4.515625 C 1.4375 -4.753906 1.316406 -5.007812 1.234375 -5.28125 C 1.148438 -5.5625 1.109375 -5.847656 1.109375 -6.140625 C 1.109375 -6.554688 1.191406 -6.941406 1.359375 -7.296875 C 1.535156 -7.660156 1.78125 -7.972656 2.09375 -8.234375 C 2.40625 -8.492188 2.769531 -8.695312 3.1875 -8.84375 C 3.601562 -9 4.0625 -9.078125 4.5625 -9.078125 C 5.039062 -9.078125 5.507812 -9.003906 5.96875 -8.859375 C 6.425781 -8.710938 6.816406 -8.507812 7.140625 -8.25 C 7.398438 -8.40625 7.625 -8.535156 7.8125 -8.640625 C 8.007812 -8.753906 8.1875 -8.84375 8.34375 -8.90625 C 8.507812 -8.96875 8.660156 -9.007812 8.796875 -9.03125 C 8.929688 -9.0625 9.066406 -9.078125 9.203125 -9.078125 C 9.617188 -9.078125 9.957031 -8.976562 10.21875 -8.78125 C 10.488281 -8.59375 10.625 -8.34375 10.625 -8.03125 C 10.625 -7.800781 10.550781 -7.609375 10.40625 -7.453125 C 10.257812 -7.304688 10.066406 -7.234375 9.828125 -7.234375 C 9.660156 -7.234375 9.523438 -7.269531 9.421875 -7.34375 C 9.328125 -7.414062 9.234375 -7.5 9.140625 -7.59375 C 9.046875 -7.6875 8.945312 -7.769531 8.84375 -7.84375 C 8.738281 -7.914062 8.601562 -7.953125 8.4375 -7.953125 C 8.207031 -7.953125 7.984375 -7.800781 7.765625 -7.5 C 7.878906 -7.3125 7.957031 -7.109375 8 -6.890625 C 8.039062 -6.671875 8.0625 -6.414062 8.0625 -6.125 C 8.0625 -5.695312 7.992188 -5.300781 7.859375 -4.9375 C 7.734375 -4.582031 7.523438 -4.265625 7.234375 -3.984375 C 6.953125 -3.710938 6.585938 -3.484375 6.140625 -3.296875 C 5.691406 -3.109375 5.144531 -2.976562 4.5 -2.90625 C 3.96875 -2.851562 3.597656 -2.78125 3.390625 -2.6875 C 3.179688 -2.601562 3.078125 -2.46875 3.078125 -2.28125 C 3.078125 -2.019531 3.328125 -1.863281 3.828125 -1.8125 Z M 4.640625 -3.859375 C 4.992188 -3.859375 5.269531 -4.050781 5.46875 -4.4375 C 5.675781 -4.820312 5.78125 -5.351562 5.78125 -6.03125 C 5.78125 -6.726562 5.675781 -7.265625 5.46875 -7.640625 C 5.269531 -8.015625 4.988281 -8.203125 4.625 -8.203125 C 4.238281 -8.203125 3.929688 -8.007812 3.703125 -7.625 C 3.484375 -7.25 3.375 -6.726562 3.375 -6.0625 C 3.375 -5.394531 3.488281 -4.859375 3.71875 -4.453125 C 3.945312 -4.054688 4.253906 -3.859375 4.640625 -3.859375 Z M 4.640625 -3.859375 "/></g></g><g style="fill:#000000;fill-opacity:1;"><g transform="translate(209.623666, 299.91893)"><path style="stroke:none" d=""/></g></g><g style="fill:#000000;fill-opacity:1;"><g transform="translate(214.095726, 299.91893)"><path style="stroke:none" d="M 0.90625 -4.28125 L 1.5625 -4.28125 C 1.71875 -3.21875 2.144531 -2.378906 2.84375 -1.765625 C 3.539062 -1.160156 4.394531 -0.859375 5.40625 -0.859375 C 5.820312 -0.859375 6.203125 -0.90625 6.546875 -1 C 6.898438 -1.101562 7.195312 -1.25 7.4375 -1.4375 C 7.6875 -1.625 7.878906 -1.84375 8.015625 -2.09375 C 8.148438 -2.34375 8.21875 -2.625 8.21875 -2.9375 C 8.21875 -3.207031 8.175781 -3.441406 8.09375 -3.640625 C 8.007812 -3.835938 7.847656 -4.023438 7.609375 -4.203125 C 7.378906 -4.390625 7.054688 -4.578125 6.640625 -4.765625 C 6.234375 -4.960938 5.707031 -5.1875 5.0625 -5.4375 C 3.75 -5.9375 2.773438 -6.519531 2.140625 -7.1875 C 1.515625 -7.851562 1.203125 -8.640625 1.203125 -9.546875 C 1.203125 -10.078125 1.300781 -10.5625 1.5 -11 C 1.707031 -11.4375 1.992188 -11.8125 2.359375 -12.125 C 2.722656 -12.4375 3.160156 -12.675781 3.671875 -12.84375 C 4.179688 -13.019531 4.742188 -13.109375 5.359375 -13.109375 C 5.929688 -13.109375 6.46875 -13.019531 6.96875 -12.84375 C 7.476562 -12.664062 7.976562 -12.394531 8.46875 -12.03125 L 8.78125 -12.875 L 9.171875 -12.875 L 9.359375 -9.25 L 8.703125 -9.25 C 8.441406 -10.164062 8.023438 -10.867188 7.453125 -11.359375 C 6.878906 -11.847656 6.21875 -12.09375 5.46875 -12.09375 C 4.769531 -12.09375 4.203125 -11.921875 3.765625 -11.578125 C 3.335938 -11.234375 3.125 -10.789062 3.125 -10.25 C 3.125 -10.019531 3.160156 -9.8125 3.234375 -9.625 C 3.316406 -9.4375 3.460938 -9.257812 3.671875 -9.09375 C 3.890625 -8.925781 4.179688 -8.753906 4.546875 -8.578125 C 4.921875 -8.410156 5.398438 -8.21875 5.984375 -8 C 6.765625 -7.695312 7.429688 -7.390625 7.984375 -7.078125 C 8.546875 -6.773438 9.003906 -6.445312 9.359375 -6.09375 C 9.710938 -5.738281 9.972656 -5.363281 10.140625 -4.96875 C 10.304688 -4.582031 10.390625 -4.15625 10.390625 -3.6875 C 10.390625 -3.113281 10.265625 -2.585938 10.015625 -2.109375 C 9.773438 -1.640625 9.429688 -1.238281 8.984375 -0.90625 C 8.546875 -0.570312 8.019531 -0.304688 7.40625 -0.109375 C 6.789062 0.078125 6.113281 0.171875 5.375 0.171875 C 4.707031 0.171875 4.101562 0.078125 3.5625 -0.109375 C 3.019531 -0.296875 2.46875 -0.597656 1.90625 -1.015625 L 1.5625 0 L 1.15625 0 Z M 0.90625 -4.28125 "/></g></g><g style="fill:#000000;fill-opacity:1;"><g transform="translate(225.242234, 299.91893)"><path style="stroke:none" d="M 5.515625 -9.078125 C 6.179688 -9.078125 6.816406 -8.960938 7.421875 -8.734375 C 8.023438 -8.503906 8.550781 -8.1875 9 -7.78125 C 9.457031 -7.375 9.816406 -6.894531 10.078125 -6.34375 C 10.335938 -5.789062 10.46875 -5.179688 10.46875 -4.515625 C 10.46875 -3.835938 10.335938 -3.210938 10.078125 -2.640625 C 9.816406 -2.066406 9.457031 -1.570312 9 -1.15625 C 8.550781 -0.738281 8.023438 -0.410156 7.421875 -0.171875 C 6.816406 0.0546875 6.179688 0.171875 5.515625 0.171875 C 4.847656 0.171875 4.21875 0.0546875 3.625 -0.171875 C 3.03125 -0.398438 2.507812 -0.722656 2.0625 -1.140625 C 1.613281 -1.554688 1.257812 -2.050781 1 -2.625 C 0.75 -3.207031 0.625 -3.835938 0.625 -4.515625 C 0.625 -5.179688 0.75 -5.796875 1 -6.359375 C 1.257812 -6.921875 1.613281 -7.398438 2.0625 -7.796875 C 2.507812 -8.203125 3.03125 -8.515625 3.625 -8.734375 C 4.21875 -8.960938 4.847656 -9.078125 5.515625 -9.078125 Z M 5.515625 -8.109375 C 5.179688 -8.109375 4.875 -8.019531 4.59375 -7.84375 C 4.3125 -7.664062 4.070312 -7.421875 3.875 -7.109375 C 3.675781 -6.796875 3.523438 -6.414062 3.421875 -5.96875 C 3.316406 -5.53125 3.265625 -5.039062 3.265625 -4.5 C 3.265625 -3.945312 3.316406 -3.441406 3.421875 -2.984375 C 3.523438 -2.535156 3.675781 -2.15625 3.875 -1.84375 C 4.070312 -1.53125 4.304688 -1.285156 4.578125 -1.109375 C 4.859375 -0.941406 5.171875 -0.859375 5.515625 -0.859375 C 5.859375 -0.859375 6.171875 -0.941406 6.453125 -1.109375 C 6.742188 -1.285156 6.988281 -1.535156 7.1875 -1.859375 C 7.394531 -2.179688 7.550781 -2.566406 7.65625 -3.015625 C 7.769531 -3.460938 7.828125 -3.957031 7.828125 -4.5 C 7.828125 -5.039062 7.769531 -5.53125 7.65625 -5.96875 C 7.550781 -6.40625 7.394531 -6.78125 7.1875 -7.09375 C 6.988281 -7.414062 6.742188 -7.664062 6.453125 -7.84375 C 6.171875 -8.019531 5.859375 -8.109375 5.515625 -8.109375 Z M 5.515625 -8.109375 "/></g></g><g style="fill:#000000;fill-opacity:1;"><g transform="translate(236.338306, 299.91893)"><path style="stroke:none" d="M 4.15625 -2.75 C 4.15625 -2.300781 4.171875 -1.941406 4.203125 -1.671875 C 4.234375 -1.410156 4.300781 -1.207031 4.40625 -1.0625 C 4.507812 -0.914062 4.65625 -0.816406 4.84375 -0.765625 C 5.03125 -0.710938 5.285156 -0.679688 5.609375 -0.671875 L 5.609375 0 L 0.3125 0 L 0.3125 -0.671875 C 0.632812 -0.679688 0.890625 -0.71875 1.078125 -0.78125 C 1.273438 -0.84375 1.425781 -0.941406 1.53125 -1.078125 C 1.644531 -1.222656 1.71875 -1.421875 1.75 -1.671875 C 1.789062 -1.921875 1.8125 -2.242188 1.8125 -2.640625 L 1.8125 -9.578125 C 1.8125 -10.234375 1.800781 -10.769531 1.78125 -11.1875 C 1.757812 -11.601562 1.734375 -11.890625 1.703125 -12.046875 C 1.640625 -12.328125 1.507812 -12.515625 1.3125 -12.609375 C 1.125 -12.703125 0.769531 -12.75 0.25 -12.75 L 0.25 -13.3125 L 4.15625 -13.953125 Z M 4.15625 -2.75 "/></g></g><g style="fill:#000000;fill-opacity:1;"><g transform="translate(242.306648, 299.91893)"><path style="stroke:none" d="M 7.8125 -6.15625 C 7.8125 -6.601562 7.800781 -6.957031 7.78125 -7.21875 C 7.757812 -7.476562 7.695312 -7.675781 7.59375 -7.8125 C 7.5 -7.957031 7.351562 -8.054688 7.15625 -8.109375 C 6.957031 -8.160156 6.691406 -8.203125 6.359375 -8.234375 L 6.359375 -8.90625 L 10.15625 -8.90625 L 10.15625 -3.8125 C 10.15625 -3.132812 10.160156 -2.597656 10.171875 -2.203125 C 10.191406 -1.816406 10.222656 -1.53125 10.265625 -1.34375 C 10.304688 -1.195312 10.347656 -1.082031 10.390625 -1 C 10.429688 -0.914062 10.503906 -0.847656 10.609375 -0.796875 C 10.710938 -0.742188 10.847656 -0.707031 11.015625 -0.6875 C 11.191406 -0.675781 11.421875 -0.671875 11.703125 -0.671875 L 11.703125 -0.015625 L 8.359375 0.1875 L 8.171875 -1.3125 L 8.109375 -1.3125 C 7.816406 -0.84375 7.40625 -0.476562 6.875 -0.21875 C 6.351562 0.0390625 5.765625 0.171875 5.109375 0.171875 C 3.910156 0.171875 3 -0.253906 2.375 -1.109375 C 1.882812 -1.753906 1.640625 -2.679688 1.640625 -3.890625 L 1.640625 -6.15625 C 1.640625 -6.613281 1.628906 -6.972656 1.609375 -7.234375 C 1.585938 -7.503906 1.53125 -7.703125 1.4375 -7.828125 C 1.34375 -7.960938 1.195312 -8.054688 1 -8.109375 C 0.8125 -8.160156 0.550781 -8.203125 0.21875 -8.234375 L 0.21875 -8.90625 L 3.984375 -8.90625 L 3.984375 -4.15625 C 3.984375 -3.019531 4.125 -2.195312 4.40625 -1.6875 C 4.6875 -1.175781 5.132812 -0.921875 5.75 -0.921875 C 6.40625 -0.921875 6.914062 -1.222656 7.28125 -1.828125 C 7.632812 -2.410156 7.8125 -3.269531 7.8125 -4.40625 Z M 7.8125 -6.15625 "/></g></g><g style="fill:#000000;fill-opacity:1;"><g transform="translate(254.226517, 299.91893)"><path style="stroke:none" d="M 0.421875 -7.984375 L 0.421875 -8.75 C 1.085938 -8.9375 1.648438 -9.222656 2.109375 -9.609375 C 2.566406 -9.992188 2.90625 -10.4375 3.125 -10.9375 L 3.984375 -10.9375 L 3.984375 -8.90625 L 5.921875 -8.90625 L 5.921875 -7.984375 L 3.984375 -7.984375 L 3.984375 -2.828125 C 3.984375 -2.128906 4.054688 -1.632812 4.203125 -1.34375 C 4.359375 -1.050781 4.613281 -0.90625 4.96875 -0.90625 C 5.40625 -0.90625 5.738281 -1.109375 5.96875 -1.515625 L 6.328125 -1.03125 C 6.003906 -0.226562 5.265625 0.171875 4.109375 0.171875 C 3.328125 0.171875 2.71875 -0.00390625 2.28125 -0.359375 C 1.851562 -0.722656 1.640625 -1.234375 1.640625 -1.890625 L 1.640625 -7.984375 Z M 0.421875 -7.984375 "/></g></g><g style="fill:#000000;fill-opacity:1;"><g transform="translate(260.648793, 299.91893)"><path style="stroke:none" d="M 4.328125 -2.75 C 4.328125 -2.300781 4.34375 -1.941406 4.375 -1.671875 C 4.40625 -1.410156 4.46875 -1.207031 4.5625 -1.0625 C 4.664062 -0.914062 4.8125 -0.816406 5 -0.765625 C 5.195312 -0.710938 5.457031 -0.679688 5.78125 -0.671875 L 5.78125 0 L 0.484375 0 L 0.484375 -0.671875 C 0.796875 -0.679688 1.050781 -0.71875 1.25 -0.78125 C 1.445312 -0.84375 1.597656 -0.941406 1.703125 -1.078125 C 1.804688 -1.222656 1.878906 -1.421875 1.921875 -1.671875 C 1.960938 -1.921875 1.984375 -2.242188 1.984375 -2.640625 L 1.984375 -4.703125 C 1.984375 -5.359375 1.972656 -5.894531 1.953125 -6.3125 C 1.929688 -6.726562 1.898438 -7.015625 1.859375 -7.171875 C 1.804688 -7.453125 1.679688 -7.640625 1.484375 -7.734375 C 1.285156 -7.828125 0.929688 -7.875 0.421875 -7.875 L 0.421875 -8.4375 L 4.328125 -9.078125 Z M 1.84375 -12.640625 C 1.84375 -13.015625 1.96875 -13.328125 2.21875 -13.578125 C 2.476562 -13.828125 2.785156 -13.953125 3.140625 -13.953125 C 3.515625 -13.953125 3.828125 -13.828125 4.078125 -13.578125 C 4.328125 -13.328125 4.453125 -13.015625 4.453125 -12.640625 C 4.453125 -12.285156 4.328125 -11.976562 4.078125 -11.71875 C 3.828125 -11.46875 3.515625 -11.34375 3.140625 -11.34375 C 2.785156 -11.34375 2.476562 -11.46875 2.21875 -11.71875 C 1.96875 -11.976562 1.84375 -12.285156 1.84375 -12.640625 Z M 1.84375 -12.640625 "/></g></g><g style="fill:#000000;fill-opacity:1;"><g transform="translate(266.71801, 299.91893)"><path style="stroke:none" d="M 5.515625 -9.078125 C 6.179688 -9.078125 6.816406 -8.960938 7.421875 -8.734375 C 8.023438 -8.503906 8.550781 -8.1875 9 -7.78125 C 9.457031 -7.375 9.816406 -6.894531 10.078125 -6.34375 C 10.335938 -5.789062 10.46875 -5.179688 10.46875 -4.515625 C 10.46875 -3.835938 10.335938 -3.210938 10.078125 -2.640625 C 9.816406 -2.066406 9.457031 -1.570312 9 -1.15625 C 8.550781 -0.738281 8.023438 -0.410156 7.421875 -0.171875 C 6.816406 0.0546875 6.179688 0.171875 5.515625 0.171875 C 4.847656 0.171875 4.21875 0.0546875 3.625 -0.171875 C 3.03125 -0.398438 2.507812 -0.722656 2.0625 -1.140625 C 1.613281 -1.554688 1.257812 -2.050781 1 -2.625 C 0.75 -3.207031 0.625 -3.835938 0.625 -4.515625 C 0.625 -5.179688 0.75 -5.796875 1 -6.359375 C 1.257812 -6.921875 1.613281 -7.398438 2.0625 -7.796875 C 2.507812 -8.203125 3.03125 -8.515625 3.625 -8.734375 C 4.21875 -8.960938 4.847656 -9.078125 5.515625 -9.078125 Z M 5.515625 -8.109375 C 5.179688 -8.109375 4.875 -8.019531 4.59375 -7.84375 C 4.3125 -7.664062 4.070312 -7.421875 3.875 -7.109375 C 3.675781 -6.796875 3.523438 -6.414062 3.421875 -5.96875 C 3.316406 -5.53125 3.265625 -5.039062 3.265625 -4.5 C 3.265625 -3.945312 3.316406 -3.441406 3.421875 -2.984375 C 3.523438 -2.535156 3.675781 -2.15625 3.875 -1.84375 C 4.070312 -1.53125 4.304688 -1.285156 4.578125 -1.109375 C 4.859375 -0.941406 5.171875 -0.859375 5.515625 -0.859375 C 5.859375 -0.859375 6.171875 -0.941406 6.453125 -1.109375 C 6.742188 -1.285156 6.988281 -1.535156 7.1875 -1.859375 C 7.394531 -2.179688 7.550781 -2.566406 7.65625 -3.015625 C 7.769531 -3.460938 7.828125 -3.957031 7.828125 -4.5 C 7.828125 -5.039062 7.769531 -5.53125 7.65625 -5.96875 C 7.550781 -6.40625 7.394531 -6.78125 7.1875 -7.09375 C 6.988281 -7.414062 6.742188 -7.664062 6.453125 -7.84375 C 6.171875 -8.019531 5.859375 -8.109375 5.515625 -8.109375 Z M 5.515625 -8.109375 "/></g></g><g style="fill:#000000;fill-opacity:1;"><g transform="translate(277.814082, 299.91893)"><path style="stroke:none" d="M 4.328125 -2.734375 C 4.328125 -2.273438 4.335938 -1.914062 4.359375 -1.65625 C 4.390625 -1.394531 4.453125 -1.191406 4.546875 -1.046875 C 4.640625 -0.910156 4.785156 -0.816406 4.984375 -0.765625 C 5.179688 -0.722656 5.445312 -0.691406 5.78125 -0.671875 L 5.78125 0 L 0.484375 0 L 0.484375 -0.671875 C 0.804688 -0.691406 1.066406 -0.722656 1.265625 -0.765625 C 1.460938 -0.816406 1.613281 -0.910156 1.71875 -1.046875 C 1.832031 -1.179688 1.90625 -1.367188 1.9375 -1.609375 C 1.96875 -1.859375 1.984375 -2.195312 1.984375 -2.625 L 1.984375 -4.71875 C 1.984375 -5.382812 1.972656 -5.921875 1.953125 -6.328125 C 1.929688 -6.734375 1.898438 -7.007812 1.859375 -7.15625 C 1.828125 -7.300781 1.78125 -7.421875 1.71875 -7.515625 C 1.664062 -7.617188 1.582031 -7.691406 1.46875 -7.734375 C 1.363281 -7.785156 1.226562 -7.820312 1.0625 -7.84375 C 0.894531 -7.863281 0.679688 -7.875 0.421875 -7.875 L 0.421875 -8.4375 L 3.671875 -9.078125 L 3.890625 -7.59375 L 3.953125 -7.59375 C 4.316406 -8.070312 4.75 -8.4375 5.25 -8.6875 C 5.757812 -8.945312 6.316406 -9.078125 6.921875 -9.078125 C 7.640625 -9.078125 8.21875 -8.976562 8.65625 -8.78125 C 9.101562 -8.582031 9.503906 -8.253906 9.859375 -7.796875 C 10.046875 -7.546875 10.210938 -7.210938 10.359375 -6.796875 C 10.503906 -6.390625 10.578125 -5.828125 10.578125 -5.109375 L 10.578125 -2.734375 C 10.578125 -2.273438 10.585938 -1.914062 10.609375 -1.65625 C 10.640625 -1.394531 10.703125 -1.191406 10.796875 -1.046875 C 10.890625 -0.910156 11.03125 -0.816406 11.21875 -0.765625 C 11.414062 -0.722656 11.675781 -0.691406 12 -0.671875 L 12 0 L 6.734375 0 L 6.734375 -0.671875 C 7.078125 -0.679688 7.34375 -0.710938 7.53125 -0.765625 C 7.726562 -0.816406 7.878906 -0.910156 7.984375 -1.046875 C 8.085938 -1.179688 8.15625 -1.375 8.1875 -1.625 C 8.21875 -1.875 8.234375 -2.207031 8.234375 -2.625 L 8.234375 -4.90625 C 8.234375 -5.476562 8.195312 -5.957031 8.125 -6.34375 C 8.0625 -6.738281 7.953125 -7.054688 7.796875 -7.296875 C 7.648438 -7.546875 7.453125 -7.722656 7.203125 -7.828125 C 6.960938 -7.929688 6.65625 -7.984375 6.28125 -7.984375 C 5.925781 -7.984375 5.617188 -7.878906 5.359375 -7.671875 C 5.097656 -7.472656 4.875 -7.195312 4.6875 -6.84375 C 4.59375 -6.644531 4.507812 -6.382812 4.4375 -6.0625 C 4.363281 -5.738281 4.328125 -5.40625 4.328125 -5.0625 Z M 4.328125 -2.734375 "/></g></g><g style="fill:#000000;fill-opacity:1;"><g transform="translate(290.036573, 299.91893)"><path style="stroke:none" d="M 1.421875 0 L 0.90625 0 L 0.90625 -3.0625 L 1.609375 -3.0625 C 1.804688 -2.25 2.082031 -1.65625 2.4375 -1.28125 C 2.789062 -0.914062 3.253906 -0.734375 3.828125 -0.734375 C 4.242188 -0.734375 4.566406 -0.820312 4.796875 -1 C 5.023438 -1.175781 5.140625 -1.414062 5.140625 -1.71875 C 5.140625 -2.03125 5 -2.332031 4.71875 -2.625 C 4.4375 -2.925781 3.984375 -3.242188 3.359375 -3.578125 C 2.503906 -4.035156 1.890625 -4.488281 1.515625 -4.9375 C 1.148438 -5.394531 0.96875 -5.910156 0.96875 -6.484375 C 0.96875 -6.859375 1.035156 -7.203125 1.171875 -7.515625 C 1.316406 -7.835938 1.507812 -8.113281 1.75 -8.34375 C 2 -8.582031 2.289062 -8.765625 2.625 -8.890625 C 2.957031 -9.023438 3.320312 -9.09375 3.71875 -9.09375 C 4.0625 -9.09375 4.40625 -9.039062 4.75 -8.9375 C 5.09375 -8.84375 5.394531 -8.707031 5.65625 -8.53125 L 5.953125 -8.921875 L 6.390625 -8.921875 L 6.390625 -6.390625 L 5.734375 -6.390625 C 5.472656 -7.023438 5.203125 -7.484375 4.921875 -7.765625 C 4.648438 -8.046875 4.320312 -8.1875 3.9375 -8.1875 C 3.625 -8.1875 3.375 -8.101562 3.1875 -7.9375 C 3 -7.769531 2.90625 -7.546875 2.90625 -7.265625 C 2.90625 -6.953125 3.039062 -6.65625 3.3125 -6.375 C 3.59375 -6.09375 4.050781 -5.785156 4.6875 -5.453125 C 5.132812 -5.203125 5.519531 -4.957031 5.84375 -4.71875 C 6.175781 -4.488281 6.441406 -4.25 6.640625 -4 C 6.835938 -3.757812 6.984375 -3.507812 7.078125 -3.25 C 7.179688 -2.988281 7.234375 -2.707031 7.234375 -2.40625 C 7.234375 -2.007812 7.160156 -1.65625 7.015625 -1.34375 C 6.867188 -1.03125 6.660156 -0.757812 6.390625 -0.53125 C 6.117188 -0.3125 5.796875 -0.140625 5.421875 -0.015625 C 5.046875 0.109375 4.628906 0.171875 4.171875 0.171875 C 3.691406 0.171875 3.242188 0.109375 2.828125 -0.015625 C 2.410156 -0.148438 2.066406 -0.34375 1.796875 -0.59375 Z M 1.421875 0 "/></g></g></g></svg>